<?xml version="1.0" standalone="no"?>
<!DOCTYPE svg PUBLIC "-//W3C//DTD SVG 20010904//EN"
 "http://www.w3.org/TR/2001/REC-SVG-20010904/DTD/svg10.dtd">
<svg version="1.0" xmlns="http://www.w3.org/2000/svg"
 width="700.000000pt" height="700.000000pt" viewBox="0 0 700.000000 700.000000"
 preserveAspectRatio="xMidYMid meet">
<metadata>
Created by potrace 1.11, written by Peter Selinger 2001-2013
</metadata>
<g transform="translate(0.000000,700.000000) scale(0.100000,-0.100000)"
fill="#000000" stroke="none">
<path d="M3294 6854 c-47 -10 -408 -146 -539 -203 -11 -5 -69 -28 -130 -51
-60 -24 -123 -49 -140 -56 -16 -7 -185 -74 -375 -149 -190 -74 -354 -140 -365
-145 -17 -8 -483 -192 -930 -367 -187 -74 -232 -97 -250 -132 -33 -65 6 -99
192 -172 71 -27 137 -54 148 -59 11 -5 139 -56 285 -114 146 -57 353 -138 460
-181 107 -42 214 -85 237 -96 24 -10 45 -19 48 -19 3 0 126 -48 273 -106 988
-392 1037 -411 1077 -418 17 -3 41 -8 55 -11 14 -3 68 -6 120 -6 83 0 128 4
189 16 21 4 158 54 196 71 17 7 89 36 160 64 72 27 138 55 147 60 10 6 23 10
29 10 6 0 27 7 47 16 21 9 46 20 57 25 11 5 153 61 315 125 536 211 1175 464
1195 473 11 5 126 51 255 101 261 102 294 119 315 160 21 40 6 73 -47 104 -24
13 -187 82 -363 151 -176 70 -329 131 -340 136 -11 5 -175 70 -365 145 -190
75 -462 182 -605 239 -143 57 -359 142 -480 190 -121 47 -265 105 -320 127
-180 73 -233 85 -373 85 -64 1 -144 -5 -178 -13z"/>
<path d="M393 5409 c-46 -9 -77 -32 -104 -76 l-24 -38 0 -1850 0 -1850 34 -70
c23 -50 53 -89 100 -135 l67 -65 250 -98 c137 -54 258 -102 269 -107 31 -14
399 -161 410 -163 6 -2 170 -66 365 -144 195 -78 488 -194 650 -258 162 -64
381 -151 485 -193 170 -69 197 -77 257 -77 81 0 112 19 147 89 l25 49 0 1791
c1 1220 -2 1810 -9 1851 -20 113 -91 224 -182 284 -25 17 -114 58 -197 90
-263 103 -1090 431 -1111 440 -25 11 -284 114 -571 226 -120 47 -228 90 -239
95 -28 13 -494 196 -523 205 -36 11 -64 12 -99 4z"/>
<path d="M6445 5409 c-257 -100 -917 -360 -960 -378 -11 -5 -40 -16 -65 -26
-25 -9 -58 -23 -75 -30 -16 -7 -79 -32 -140 -55 -60 -23 -119 -46 -130 -51
-20 -9 -341 -136 -930 -369 -367 -145 -398 -163 -474 -285 -69 -109 -64 32
-65 -1955 -1 -1010 3 -1815 8 -1840 16 -84 66 -129 150 -137 58 -6 23 -18 556
194 359 143 710 281 1150 455 168 66 324 128 347 139 24 10 46 19 49 19 3 0
20 6 37 14 18 8 115 47 217 86 102 39 194 75 205 80 156 64 221 113 279 209
71 117 66 -33 66 1975 -1 1925 1 1855 -47 1908 -37 42 -129 66 -178 47z"/>
</g>
</svg>
