<?xml version="1.0" standalone="no"?><!DOCTYPE svg PUBLIC "-//W3C//DTD SVG 1.1//EN" "http://www.w3.org/Graphics/SVG/1.1/DTD/svg11.dtd" ><svg xmlns="http://www.w3.org/2000/svg"><metadata>Generated by Glyphter</metadata><defs><font id="SucroseFont" horiz-adv-x="0"><font-face units-per-em="1024" ascent="1024" descent="0" font-family="SucroseFont" font-weight="normal" /><missing-glyph horiz-adv-x="0" /><glyph unicode="&#x0041;" d="M1023.885,725.443C1023.885,716.538,1020.438,708.667,1013.601,701.83C1013.601,701.83,535.555,223.784,535.555,223.784C528.718,216.947,520.847,213.5,511.943,213.5C503.038,213.5,495.167,216.947,488.33,223.784C488.33,223.784,10.284,701.83,10.284,701.83C3.447,708.667,0,716.538,0,725.443C0,734.347,3.447,742.218,10.284,749.055C10.284,749.055,61.587,800.358,61.587,800.358C68.424,807.195,76.294,810.642,85.199,810.642C94.104,810.642,101.975,807.195,108.811,800.358C108.811,800.358,512,397.17,512,397.17C512,397.17,915.189,800.358,915.189,800.358C922.025,807.195,929.896,810.642,938.801,810.642C947.706,810.642,955.576,807.195,962.413,800.358C962.413,800.358,1013.716,749.055,1013.716,749.055C1020.553,742.218,1024,734.347,1024,725.443C1024,725.443,1023.885,725.443,1023.885,725.443" class="sf-chevron-down"/><glyph unicode="&#x0042;" d="M1024,298.699C1024,289.794,1020.553,281.924,1013.716,275.087C1013.716,275.087,962.413,223.784,962.413,223.784C955.576,216.947,947.706,213.5,938.801,213.5C929.896,213.5,922.025,216.947,915.189,223.784C915.189,223.784,512,626.972,512,626.972C512,626.972,108.811,223.784,108.811,223.784C101.975,216.947,94.104,213.5,85.199,213.5C76.294,213.5,68.424,216.947,61.587,223.784C61.587,223.784,10.284,275.087,10.284,275.087C3.447,281.924,0,289.794,0,298.699C0,307.604,3.447,315.475,10.284,322.311C10.284,322.311,488.33,800.358,488.33,800.358C495.167,807.195,503.038,810.642,511.943,810.642C520.847,810.642,528.718,807.195,535.555,800.358C535.555,800.358,1013.601,322.311,1013.601,322.311C1020.438,315.475,1023.885,307.604,1023.885,298.699C1023.885,298.699,1024,298.699,1024,298.699" class="sf-chevron-up"/><glyph unicode="&#x0043;" d="M613.709,85.709C613.709,76.803,610.261,68.931,603.424,62.094C603.424,62.094,552.115,10.785,552.115,10.785C545.277,3.947,537.406,0.5,528.5,0.5C519.594,0.5,511.723,3.947,504.885,10.785C504.885,10.785,26.785,488.885,26.785,488.885C19.947,495.723,16.5,503.594,16.5,512.5C16.5,521.406,19.947,529.277,26.785,536.115C26.785,536.115,504.885,1014.215,504.885,1014.215C511.723,1021.053,519.594,1024.5,528.5,1024.5C537.406,1024.5,545.277,1021.053,552.115,1014.215C552.115,1014.215,603.424,962.906,603.424,962.906C610.261,956.069,613.709,948.197,613.709,939.291C613.709,930.385,610.261,922.514,603.424,915.676C603.424,915.676,200.19,512.443,200.19,512.443C200.19,512.443,603.424,109.209,603.424,109.209C610.261,102.371,613.709,94.5,613.709,85.594C613.709,85.594,613.709,85.709,613.709,85.709M1007.749,85.709C1007.749,76.803,1004.302,68.931,997.465,62.094C997.465,62.094,946.155,10.785,946.155,10.785C939.318,3.947,931.446,0.5,922.541,0.5C913.635,0.5,905.763,3.947,898.926,10.785C898.926,10.785,420.825,488.885,420.825,488.885C413.988,495.723,410.541,503.594,410.541,512.5C410.541,521.406,413.988,529.277,420.825,536.115C420.825,536.115,898.926,1014.215,898.926,1014.215C905.763,1021.053,913.635,1024.5,922.541,1024.5C931.446,1024.5,939.318,1021.053,946.155,1014.215C946.155,1014.215,997.465,962.906,997.465,962.906C1004.302,956.069,1007.749,948.197,1007.749,939.291C1007.749,930.385,1004.302,922.514,997.465,915.676C997.465,915.676,594.231,512.443,594.231,512.443C594.231,512.443,997.465,109.209,997.465,109.209C1004.302,102.371,1007.749,94.5,1007.749,85.594C1007.749,85.594,1007.749,85.709,1007.749,85.709" class="sf-chevrons-left"/><glyph unicode="&#x0044;" d="M613.642,512.443C613.642,503.538,610.195,495.667,603.358,488.83C603.358,488.83,125.311,10.784,125.311,10.784C118.475,3.947,110.604,0.5,101.699,0.5C92.794,0.5,84.924,3.947,78.087,10.784C78.087,10.784,26.784,62.087,26.784,62.087C19.947,68.924,16.5,76.794,16.5,85.699C16.5,94.604,19.947,102.475,26.784,109.311C26.784,109.311,429.972,512.5,429.972,512.5C429.972,512.5,26.784,915.689,26.784,915.689C19.947,922.525,16.5,930.396,16.5,939.301C16.5,948.206,19.947,956.076,26.784,962.913C26.784,962.913,78.087,1014.216,78.087,1014.216C84.924,1021.053,92.794,1024.5,101.699,1024.5C110.604,1024.5,118.475,1021.053,125.311,1014.216C125.311,1014.216,603.358,536.17,603.358,536.17C610.195,529.333,613.642,521.462,613.642,512.557C613.642,512.557,613.642,512.443,613.642,512.443M1007.581,512.443C1007.581,503.538,1004.134,495.667,997.297,488.83C997.297,488.83,519.25,10.784,519.25,10.784C512.414,3.947,504.543,0.5,495.638,0.5C486.733,0.5,478.863,3.947,472.026,10.784C472.026,10.784,420.723,62.087,420.723,62.087C413.886,68.924,410.439,76.794,410.439,85.699C410.439,94.604,413.886,102.475,420.723,109.311C420.723,109.311,823.911,512.5,823.911,512.5C823.911,512.5,420.723,915.689,420.723,915.689C413.886,922.525,410.439,930.396,410.439,939.301C410.439,948.206,413.886,956.076,420.723,962.913C420.723,962.913,472.026,1014.216,472.026,1014.216C478.863,1021.053,486.733,1024.5,495.638,1024.5C504.543,1024.5,512.414,1021.053,519.25,1014.216C519.25,1014.216,997.297,536.17,997.297,536.17C1004.134,529.333,1007.581,521.462,1007.581,512.557C1007.581,512.557,1007.581,512.443,1007.581,512.443" class="sf-chevrons-right"/><glyph unicode="&#x0045;" d="M855.38,749.117C855.38,749.117,618.745,512.482,618.745,512.482C618.745,512.482,855.38,275.847,855.38,275.847C855.38,275.847,951.356,371.822,951.356,371.822C964.235,385.597,979.801,388.733,998.018,381.155C1015.339,373.577,1024,360.474,1024,341.809C1024,341.809,1024,43.168,1024,43.168C1024,31.633,1019.782,21.629,1011.345,13.155C1002.909,4.681,992.904,0.463,981.332,0.5C981.332,0.5,682.692,0.5,682.692,0.5C664.027,0.5,650.924,9.385,643.346,27.154C635.768,44.475,638.903,59.818,652.678,73.144C652.678,73.144,748.654,169.12,748.654,169.12C748.654,169.12,512.019,405.755,512.019,405.755C512.019,405.755,275.384,169.12,275.384,169.12C275.384,169.12,371.359,73.144,371.359,73.144C385.134,59.818,388.27,44.475,380.692,27.154C373.114,9.385,360.011,0.5,341.346,0.5C341.346,0.5,42.706,0.5,42.706,0.5C31.171,0.5,21.166,4.719,12.692,13.155C4.218,21.592,0,31.596,0.037,43.168C0.037,43.168,0.037,341.809,0.037,341.809C0.037,360.474,8.922,373.577,26.691,381.155C44.012,388.733,59.355,385.597,72.682,371.822C72.682,371.822,168.657,275.847,168.657,275.847C168.657,275.847,405.292,512.482,405.292,512.482C405.292,512.482,168.657,749.117,168.657,749.117C168.657,749.117,72.682,653.141,72.682,653.141C64.245,644.705,54.241,640.486,42.668,640.486C37.33,640.486,31.992,641.606,26.654,643.809C8.885,651.387,0,664.489,0,683.154C0,683.154,0,981.795,0,981.795C0,993.33,4.218,1003.334,12.655,1011.808C21.091,1020.282,31.096,1024.5,42.668,1024.463C42.668,1024.463,341.308,1024.463,341.308,1024.463C359.973,1024.463,373.076,1015.578,380.654,997.809C388.232,980.488,385.097,965.145,371.322,951.819C371.322,951.819,275.346,855.843,275.346,855.843C275.346,855.843,511.981,619.208,511.981,619.208C511.981,619.208,748.616,855.843,748.616,855.843C748.616,855.843,652.641,951.819,652.641,951.819C638.866,965.145,635.73,980.488,643.308,997.809C650.886,1015.578,663.989,1024.463,682.654,1024.463C682.654,1024.463,981.294,1024.463,981.294,1024.463C992.829,1024.463,1002.834,1020.245,1011.308,1011.808C1019.782,1003.371,1024,993.367,1023.963,981.795C1023.963,981.795,1023.963,683.154,1023.963,683.154C1023.963,664.489,1015.302,651.387,997.981,643.809C992.195,641.606,986.67,640.486,981.332,640.486C969.797,640.486,959.792,644.705,951.318,653.141C951.318,653.141,855.38,749.117,855.38,749.117" class="sf-expand"/><glyph unicode="&#x0046;" d="M815.041,931.439C815.041,931.439,209.959,931.439,209.959,931.439C177.948,931.439,150.538,920.035,127.772,897.269C105.006,874.502,93.602,847.093,93.602,815.082C93.602,815.082,93.602,210,93.602,210C93.602,177.988,105.006,150.579,127.772,127.813C150.538,105.046,177.948,93.643,209.959,93.643C209.959,93.643,815.041,93.643,815.041,93.643C847.052,93.643,874.462,105.046,897.228,127.813C919.994,150.579,931.398,177.988,931.398,210C931.398,210,931.398,815.082,931.398,815.082C931.398,847.093,919.994,874.502,897.228,897.269C874.462,920.035,847.052,931.439,815.041,931.439C815.041,931.439,815.041,931.439,815.041,931.439M1024.5,815.041C1024.5,815.041,1024.5,209.959,1024.5,209.959C1024.5,152.249,1004.014,102.929,963.043,61.957C922.071,20.986,872.751,0.5,815.041,0.5C815.041,0.5,209.959,0.5,209.959,0.5C152.249,0.5,102.929,20.986,61.957,61.957C20.986,102.929,0.5,152.249,0.5,209.959C0.5,209.959,0.5,815.041,0.5,815.041C0.5,872.751,20.986,922.071,61.957,963.043C102.929,1004.014,152.249,1024.5,209.959,1024.5C209.959,1024.5,815.041,1024.5,815.041,1024.5C872.751,1024.5,922.071,1004.014,963.043,963.043C1004.014,922.071,1024.5,872.751,1024.5,815.041C1024.5,815.041,1024.5,815.041,1024.5,815.041" class="sf-square-open"/><glyph unicode="&#x0047;" d="M867.5,451.672C867.5,451.672,867.5,255.845,867.5,255.845C867.5,206.983,850.155,165.224,815.466,130.534C780.776,95.845,739.017,78.5,690.155,78.5C690.155,78.5,177.845,78.5,177.845,78.5C128.983,78.5,87.224,95.845,52.534,130.534C17.845,165.224,0.5,206.983,0.5,255.845C0.5,255.845,0.5,768.155,0.5,768.155C0.5,817.017,17.845,858.776,52.534,893.466C87.224,928.155,128.983,945.5,177.845,945.5C177.845,945.5,690.155,945.5,690.155,945.5C716.017,945.5,740.017,940.362,762.19,930.121C768.362,927.259,772.052,922.534,773.259,915.948C774.5,908.948,772.638,903.017,767.707,898.086C767.707,898.086,737.534,867.914,737.534,867.914C733.431,863.81,728.707,861.741,723.362,861.741C722.121,861.741,720.259,862.155,717.81,862.983C708.362,865.431,699.121,866.672,690.086,866.672C690.086,866.672,177.776,866.672,177.776,866.672C150.672,866.672,127.466,857.017,108.19,837.741C88.914,818.466,79.259,795.259,79.259,768.155C79.259,768.155,79.259,255.845,79.259,255.845C79.259,228.741,88.914,205.534,108.19,186.259C127.466,166.983,150.672,157.328,177.776,157.328C177.776,157.328,690.086,157.328,690.086,157.328C717.19,157.328,740.397,166.983,759.672,186.259C778.948,205.534,788.603,228.741,788.603,255.845C788.603,255.845,788.603,412.259,788.603,412.259C788.603,417.603,790.466,422.121,794.155,425.81C794.155,425.81,833.569,465.224,833.569,465.224C837.672,469.328,842.397,471.397,847.741,471.397C850.19,471.397,852.672,470.776,855.121,469.534C863.328,466.259,867.431,460.293,867.431,451.672C867.431,451.672,867.5,451.672,867.5,451.672M1009.741,752.776C1009.741,752.776,508.5,251.534,508.5,251.534C498.638,241.672,486.948,236.741,473.397,236.741C459.845,236.741,448.155,241.672,438.293,251.534C438.293,251.534,173.5,516.328,173.5,516.328C163.638,526.19,158.707,537.879,158.707,551.431C158.707,564.983,163.638,576.672,173.5,586.534C173.5,586.534,241.224,654.259,241.224,654.259C251.086,664.121,262.776,669.052,276.328,669.052C289.879,669.052,301.569,664.121,311.431,654.259C311.431,654.259,473.362,492.328,473.362,492.328C473.362,492.328,871.776,890.741,871.776,890.741C881.638,900.603,893.328,905.534,906.879,905.534C920.431,905.534,932.121,900.603,941.983,890.741C941.983,890.741,1009.707,823.017,1009.707,823.017C1019.569,813.155,1024.5,801.466,1024.5,787.914C1024.5,774.362,1019.569,762.672,1009.707,752.81C1009.707,752.81,1009.741,752.776,1009.741,752.776" class="sf-square-open-check"/><glyph unicode="&#x0048;" d="M1024,831.998C1024,831.998,1024,192.002,1024,192.002C1024,139.102,1005.222,93.892,967.665,56.335C930.108,18.778,884.898,0,831.998,0C831.998,0,192.002,0,192.002,0C139.102,0,93.892,18.778,56.335,56.335C18.778,93.892,0,139.102,0,192.002C0,192.002,0,831.998,0,831.998C0,884.898,18.778,930.108,56.335,967.665C93.892,1005.222,139.102,1024,192.002,1024C192.002,1024,831.998,1024,831.998,1024C884.898,1024,930.108,1005.222,967.665,967.665C1005.222,930.108,1024,884.898,1024,831.998C1024,831.998,1024,831.998,1024,831.998" class="sf-square-filled"/><glyph unicode="&#x0049;" d="M585.085,202.432C585.085,202.432,585.085,310.884,585.085,310.884C585.085,316.222,583.263,320.697,579.651,324.309C576.039,327.921,571.756,329.743,566.801,329.743C566.801,329.743,457.199,329.743,457.199,329.743C452.244,329.743,447.961,327.921,444.349,324.309C440.737,320.697,438.915,316.222,438.915,310.884C438.915,310.884,438.915,202.432,438.915,202.432C438.915,197.094,440.737,192.619,444.349,189.007C447.961,185.395,452.244,183.573,457.199,183.573C457.199,183.573,566.801,183.573,566.801,183.573C571.756,183.573,576.039,185.395,579.651,189.007C583.263,192.619,585.085,197.094,585.085,202.432C585.085,202.432,585.085,202.432,585.085,202.432M583.934,415.916C583.934,415.916,594.194,677.89,594.194,677.89C594.194,682.46,592.276,686.072,588.473,688.725C583.518,692.912,578.948,694.99,574.76,694.99C574.76,694.99,449.176,694.99,449.176,694.99C444.988,694.99,440.418,692.912,435.463,688.725C431.66,686.072,429.742,682.077,429.742,676.739C429.742,676.739,439.459,415.884,439.459,415.884C439.459,412.081,441.377,408.916,445.18,406.455C448.984,403.994,453.555,402.747,458.893,402.747C458.893,402.747,564.5,402.747,564.5,402.747C569.838,402.747,574.313,403.994,577.925,406.455C581.537,408.916,583.55,412.081,583.934,415.884C583.934,415.884,583.934,415.916,583.934,415.916M575.943,949.036C575.943,949.036,1014.291,145.377,1014.291,145.377C1027.62,121.404,1027.236,97.432,1013.14,73.459C1006.652,62.432,997.83,53.674,986.611,47.217C975.391,40.76,963.309,37.532,950.364,37.5C950.364,37.5,73.636,37.5,73.636,37.5C60.691,37.5,48.609,40.728,37.389,47.217C26.17,53.706,17.316,62.432,10.86,73.459C-3.236,97.432,-3.62,121.404,9.709,145.377C9.709,145.377,448.057,949.036,448.057,949.036C454.546,960.831,463.463,970.164,474.874,977.004C486.285,983.845,498.655,987.265,511.984,987.265C525.313,987.265,537.683,983.845,549.094,977.004C560.505,970.164,569.423,960.831,575.911,949.036C575.911,949.036,575.943,949.036,575.943,949.036" class="sf-warning"/><glyph unicode="&#x004a;" d="M456.654,243.372C456.654,243.372,865.97,652.688,865.97,652.688C874.408,661.126,878.626,671.131,878.626,682.704C878.626,694.277,874.408,704.282,865.97,712.72C865.97,712.72,797.988,780.702,797.988,780.702C789.55,789.14,779.545,793.358,767.972,793.358C756.399,793.358,746.394,789.14,737.956,780.702C737.956,780.702,426.639,469.385,426.639,469.385C426.639,469.385,285.969,610.054,285.969,610.054C277.532,618.492,267.526,622.71,255.953,622.71C244.38,622.71,234.375,618.492,225.938,610.054C225.938,610.054,157.955,542.072,157.955,542.072C149.518,533.634,145.299,523.629,145.299,512.056C145.299,500.483,149.518,490.478,157.955,482.04C157.955,482.04,396.623,243.372,396.623,243.372C405.06,234.935,415.066,230.716,426.639,230.716C438.212,230.716,448.217,234.935,456.654,243.372C456.654,243.372,456.654,243.372,456.654,243.372M1024,831.998C1024,831.998,1024,192.002,1024,192.002C1024,139.102,1005.222,93.892,967.665,56.335C930.108,18.778,884.898,0,831.998,0C831.998,0,192.002,0,192.002,0C139.102,0,93.892,18.778,56.335,56.335C18.778,93.892,0,139.102,0,192.002C0,192.002,0,831.998,0,831.998C0,884.898,18.778,930.108,56.335,967.665C93.892,1005.222,139.102,1024,192.002,1024C192.002,1024,831.998,1024,831.998,1024C884.898,1024,930.108,1005.222,967.665,967.665C1005.222,930.108,1024,884.898,1024,831.998C1024,831.998,1024,831.998,1024,831.998" class="sf-square-filled-check"/><glyph unicode="&#x004b;" d="M511.963,874.664C446.18,874.664,385.512,858.423,329.959,825.98C274.406,793.537,230.389,749.52,197.945,693.966C165.502,638.413,149.262,577.745,149.262,511.963C149.262,446.18,165.502,385.512,197.945,329.959C230.389,274.406,274.406,230.389,329.959,197.945C385.512,165.502,446.18,149.262,511.963,149.262C577.745,149.262,638.413,165.502,693.966,197.945C749.52,230.389,793.537,274.406,825.98,329.959C858.423,385.512,874.664,446.18,874.664,511.963C874.664,577.745,858.423,638.413,825.98,693.966C793.537,749.52,749.52,793.537,693.966,825.98C638.413,858.423,577.745,874.664,511.963,874.664C511.963,874.664,511.963,874.664,511.963,874.664M1024,512C1024,419.113,1001.114,333.431,955.343,254.992C909.571,176.553,847.447,114.429,769.008,68.657C690.569,22.886,604.887,0,512,0C419.113,0,333.431,22.886,254.992,68.657C176.553,114.429,114.429,176.553,68.657,254.992C22.886,333.431,0,419.113,0,512C0,604.887,22.886,690.569,68.657,769.008C114.429,847.447,176.553,909.571,254.992,955.343C333.431,1001.114,419.113,1024,512,1024C604.887,1024,690.569,1001.114,769.008,955.343C847.447,909.571,909.571,847.447,955.343,769.008C1001.114,690.569,1024,604.887,1024,512C1024,512,1024,512,1024,512" class="sf-circle-open"/><glyph unicode="&#x004c;" d="M780.656,567.829C780.656,567.829,499.306,286.479,499.306,286.479C490.869,278.042,480.863,273.823,469.29,273.823C457.716,273.823,447.711,278.042,439.273,286.479C439.273,286.479,243.269,482.483,243.269,482.483C234.832,490.921,230.613,500.926,230.613,512.5C230.613,524.074,234.832,534.079,243.269,542.517C243.269,542.517,311.254,610.502,311.254,610.502C319.692,618.94,329.698,623.158,341.271,623.158C352.845,623.158,362.85,618.94,371.288,610.502C371.288,610.502,469.29,512.5,469.29,512.5C469.29,512.5,652.638,695.848,652.638,695.848C661.075,704.285,671.081,708.504,682.654,708.504C694.228,708.504,704.233,704.285,712.671,695.848C712.671,695.848,780.656,627.862,780.656,627.862C789.094,619.425,793.313,609.419,793.313,597.846C793.313,586.272,789.094,576.267,780.656,567.829C780.656,567.829,780.656,567.829,780.656,567.829M874.664,512.5C874.664,578.283,858.423,638.951,825.98,694.504C793.537,750.057,749.52,794.074,693.966,826.517C638.413,858.961,577.745,875.201,511.963,875.201C446.18,875.201,385.512,858.961,329.959,826.517C274.406,794.074,230.389,750.057,197.945,694.504C165.502,638.951,149.262,578.283,149.262,512.5C149.262,446.717,165.502,386.049,197.945,330.496C230.389,274.943,274.406,230.926,329.959,198.483C385.512,166.039,446.18,149.799,511.963,149.799C577.745,149.799,638.413,166.039,693.966,198.483C749.52,230.926,793.537,274.943,825.98,330.496C858.423,386.049,874.664,446.717,874.664,512.5C874.664,512.5,874.664,512.5,874.664,512.5M1024,512.5C1024,419.613,1001.114,333.931,955.343,255.492C909.571,177.053,847.447,114.929,769.008,69.157C690.569,23.386,604.887,0.5,512,0.5C419.113,0.5,333.431,23.386,254.992,69.157C176.553,114.929,114.429,177.053,68.657,255.492C22.886,333.931,0,419.613,0,512.5C0,605.387,22.886,691.069,68.657,769.508C114.429,847.947,176.553,910.071,254.992,955.843C333.431,1001.614,419.113,1024.5,512,1024.5C604.887,1024.5,690.569,1001.614,769.008,955.843C847.447,910.071,909.571,847.947,955.343,769.508C1001.114,691.069,1024,605.387,1024,512.5C1024,512.5,1024,512.5,1024,512.5" class="sf-circle-open-check"/><glyph unicode="&#x004d;" d="M1024,512C1024,419.113,1001.114,333.431,955.343,254.992C909.571,176.553,847.447,114.429,769.008,68.657C690.569,22.886,604.887,0,512,0C419.113,0,333.431,22.886,254.992,68.657C176.553,114.429,114.429,176.553,68.657,254.992C22.886,333.431,0,419.113,0,512C0,604.887,22.886,690.569,68.657,769.008C114.429,847.447,176.553,909.571,254.992,955.343C333.431,1001.114,419.113,1024,512,1024C604.887,1024,690.569,1001.114,769.008,955.343C847.447,909.571,909.571,847.447,955.343,769.008C1001.114,690.569,1024,604.887,1024,512C1024,512,1024,512,1024,512" class="sf-circle-filled"/><glyph unicode="&#x004e;" d="M512.5,1024C605.387,1024,691.069,1001.114,769.508,955.343C847.947,909.571,910.071,847.447,955.843,769.008C1001.614,690.569,1024.5,604.887,1024.5,512C1024.5,419.113,1001.614,333.431,955.843,254.992C910.071,176.553,847.947,114.429,769.508,68.657C691.069,22.886,605.387,0,512.5,0C419.613,0,333.931,22.886,255.492,68.657C177.053,114.429,114.929,176.553,69.157,254.992C23.386,333.431,0.5,419.113,0.5,512C0.5,604.887,23.386,690.569,69.157,769.008C114.929,847.447,177.053,909.571,255.492,955.343C333.931,1001.114,419.613,1024,512.5,1024C512.5,1024,512.5,1024,512.5,1024M597.846,192.644C597.846,192.644,597.846,319.319,597.846,319.319C597.846,325.553,595.83,330.78,591.835,334.999C587.84,339.218,582.949,341.346,577.163,341.346C577.163,341.346,449.144,341.346,449.144,341.346C443.357,341.346,438.242,339.106,433.8,334.663C429.357,330.22,427.117,325.105,427.117,319.319C427.117,319.319,427.117,192.644,427.117,192.644C427.117,186.857,429.357,181.742,433.8,177.3C438.242,172.857,443.357,170.617,449.144,170.617C449.144,170.617,577.163,170.617,577.163,170.617C582.949,170.617,587.84,172.745,591.835,176.964C595.83,181.182,597.846,186.409,597.846,192.644C597.846,192.644,597.846,192.644,597.846,192.644M596.502,421.987C596.502,421.987,608.486,835.985,608.486,835.985C608.486,841.324,606.246,845.319,601.803,847.97C597.36,851.516,592.022,853.308,585.787,853.308C585.787,853.308,439.101,853.308,439.101,853.308C432.866,853.308,427.528,851.516,423.085,847.97C418.642,845.319,416.402,841.324,416.402,835.985C416.402,835.985,427.752,421.987,427.752,421.987C427.752,417.545,429.992,413.625,434.434,410.302C438.877,406.979,444.216,405.299,450.451,405.299C450.451,405.299,573.803,405.299,573.803,405.299C580.037,405.299,585.264,406.979,589.483,410.302C593.702,413.625,596.054,417.545,596.502,421.987C596.502,421.987,596.502,421.987,596.502,421.987" class="sf-circle-warning"/><glyph unicode="&#x004f;" d="M1024,213.514C1024,213.514,1024,128.172,1024,128.172C1024,116.636,1019.781,106.631,1011.344,98.156C1002.907,89.682,992.902,85.463,981.329,85.5C981.329,85.5,42.671,85.5,42.671,85.5C31.136,85.5,21.13,89.719,12.656,98.156C4.181,106.593,-0.037,116.598,0,128.172C0,128.172,0,213.514,0,213.514C0,225.05,4.219,235.055,12.656,243.53C21.093,252.004,31.098,256.223,42.671,256.186C42.671,256.186,981.329,256.186,981.329,256.186C992.864,256.186,1002.87,251.967,1011.344,243.53C1019.819,235.093,1024.037,225.087,1024,213.514C1024,213.514,1024,213.514,1024,213.514M1024,554.848C1024,554.848,1024,469.505,1024,469.505C1024,457.969,1019.781,447.964,1011.344,439.489C1002.907,431.015,992.902,426.796,981.329,426.834C981.329,426.834,42.671,426.834,42.671,426.834C31.136,426.834,21.13,431.052,12.656,439.489C4.181,447.927,-0.037,457.932,0,469.505C0,469.505,0,554.848,0,554.848C0,566.383,4.219,576.389,12.656,584.863C21.093,593.338,31.098,597.556,42.671,597.519C42.671,597.519,981.329,597.519,981.329,597.519C992.864,597.519,1002.87,593.3,1011.344,584.863C1019.819,576.426,1024.037,566.421,1024,554.848C1024,554.848,1024,554.848,1024,554.848M1024,896.181C1024,896.181,1024,810.838,1024,810.838C1024,799.302,1019.781,789.297,1011.344,780.823C1002.907,772.348,992.902,768.13,981.329,768.167C981.329,768.167,42.671,768.167,42.671,768.167C31.136,768.167,21.13,772.386,12.656,780.823C4.181,789.26,-0.037,799.265,0,810.838C0,810.838,0,896.181,0,896.181C0,907.717,4.219,917.722,12.656,926.196C21.093,934.671,31.098,938.89,42.671,938.852C42.671,938.852,981.329,938.852,981.329,938.852C992.864,938.852,1002.87,934.634,1011.344,926.196C1019.819,917.759,1024.037,907.754,1024,896.181C1024,896.181,1024,896.181,1024,896.181" class="sf-menu"/><glyph unicode="&#x0050;" d="M245.836,87.022C245.836,87.022,307.34,148.527,307.34,148.527C307.34,148.527,148.527,307.34,148.527,307.34C148.527,307.34,87.022,245.836,87.022,245.836C87.022,245.836,87.022,173.507,87.022,173.507C87.022,173.507,173.545,173.507,173.545,173.507C173.545,173.507,173.545,86.985,173.545,86.985C173.545,86.985,245.874,86.985,245.874,86.985C245.874,86.985,245.836,87.022,245.836,87.022M599.306,714.253C599.306,724.17,594.348,729.128,584.432,729.128C579.928,729.128,576.067,727.538,572.926,724.397C572.926,724.397,206.587,358.058,206.587,358.058C203.445,354.916,201.856,351.056,201.856,346.552C201.856,336.635,206.814,331.677,216.73,331.677C221.234,331.677,225.095,333.267,228.236,336.408C228.236,336.408,594.575,702.747,594.575,702.747C597.717,705.889,599.306,709.749,599.306,714.253C599.306,714.253,599.306,714.253,599.306,714.253M562.82,843.999C562.82,843.999,843.999,562.82,843.999,562.82C843.999,562.82,281.679,0.5,281.679,0.5C281.679,0.5,0.5,0.5,0.5,0.5C0.5,0.5,0.5,281.679,0.5,281.679C0.5,281.679,562.82,843.999,562.82,843.999M1024.462,779.126C1024.462,755.243,1016.135,734.994,999.444,718.303C999.444,718.303,887.26,606.119,887.26,606.119C887.26,606.119,606.081,887.298,606.081,887.298C606.081,887.298,718.265,998.801,718.265,998.801C734.502,1015.946,754.751,1024.5,779.088,1024.5C802.971,1024.5,823.447,1015.946,840.593,998.801C840.593,998.801,999.406,840.63,999.406,840.63C1016.098,823.069,1024.424,802.554,1024.424,779.126C1024.424,779.126,1024.462,779.126,1024.462,779.126" class="sf-edit"/><glyph unicode="&#x0051;" d="M788.142,157.627C788.142,168.275,784.248,177.51,776.46,185.333C768.672,193.155,759.437,197.049,748.755,197.015C738.072,196.98,728.837,193.086,721.049,185.333C713.261,177.579,709.367,168.344,709.367,157.627C709.367,146.91,713.261,137.675,721.049,129.922C728.837,122.168,738.072,118.275,748.755,118.24C759.437,118.206,768.672,122.1,776.46,129.922C784.248,137.744,788.142,146.979,788.142,157.627C788.142,157.627,788.142,157.627,788.142,157.627M945.691,157.627C945.691,168.275,941.797,177.51,934.009,185.333C926.221,193.155,916.986,197.049,906.304,197.015C895.621,196.98,886.386,193.086,878.598,185.333C870.81,177.579,866.916,168.344,866.916,157.627C866.916,146.91,870.81,137.675,878.598,129.922C886.386,122.168,895.621,118.275,906.304,118.24C916.986,118.206,926.221,122.1,934.009,129.922C941.797,137.744,945.691,146.979,945.691,157.627C945.691,157.627,945.691,157.627,945.691,157.627M1024.431,295.466C1024.431,295.466,1024.431,98.564,1024.431,98.564C1024.431,82.161,1018.676,68.205,1007.201,56.73C995.726,45.255,981.77,39.5,965.367,39.5C965.367,39.5,59.564,39.5,59.564,39.5C43.161,39.5,29.205,45.255,17.73,56.73C6.255,68.205,0.5,82.161,0.5,98.564C0.5,98.564,0.5,295.466,0.5,295.466C0.5,311.868,6.255,325.824,17.73,337.299C29.205,348.774,43.161,354.529,59.564,354.529C59.564,354.529,345.716,354.529,345.716,354.529C345.716,354.529,428.798,270.827,428.798,270.827C452.609,247.842,480.487,236.367,512.5,236.367C544.513,236.367,572.391,247.842,596.202,270.827C596.202,270.827,679.904,354.529,679.904,354.529C679.904,354.529,965.436,354.529,965.436,354.529C981.839,354.529,995.795,348.774,1007.27,337.299C1018.745,325.824,1024.5,311.868,1024.5,295.466C1024.5,295.466,1024.431,295.466,1024.431,295.466M824.462,645.609C831.458,628.793,828.563,614.423,815.847,602.535C815.847,602.535,540.171,326.858,540.171,326.858C532.797,319.07,523.562,315.176,512.466,315.176C501.37,315.176,492.134,319.07,484.76,326.858C484.76,326.858,209.084,602.535,209.084,602.535C196.368,614.423,193.473,628.793,200.469,645.609C207.464,661.598,219.559,669.593,236.789,669.593C236.789,669.593,394.304,669.593,394.304,669.593C394.304,669.593,394.304,945.269,394.304,945.269C394.304,955.917,398.198,965.152,405.986,972.975C413.773,980.797,423.009,984.691,433.691,984.657C433.691,984.657,591.206,984.657,591.206,984.657C601.854,984.657,611.089,980.763,618.911,972.975C626.733,965.187,630.627,955.952,630.593,945.269C630.593,945.269,630.593,669.593,630.593,669.593C630.593,669.593,788.107,669.593,788.107,669.593C805.337,669.593,817.433,661.598,824.428,645.609C824.428,645.609,824.462,645.609,824.462,645.609" class="sf-download"/><glyph unicode="&#x0052;" d="M320.078,266.52C320.078,266.52,292.097,238.538,292.097,238.538C288.368,234.809,284.075,232.929,279.219,232.929C274.362,232.929,270.069,234.809,266.34,238.538C266.34,238.538,5.609,499.27,5.609,499.27C1.88,502.998,0,507.291,0,512.148C0,517.005,1.88,521.298,5.609,525.026C5.609,525.026,266.34,785.758,266.34,785.758C270.069,789.487,274.362,791.367,279.219,791.367C284.075,791.367,288.368,789.487,292.097,785.758C292.097,785.758,320.078,757.776,320.078,757.776C323.807,754.048,325.687,749.755,325.687,744.898C325.687,740.041,323.807,735.748,320.078,732.02C320.078,732.02,100.175,512.117,100.175,512.117C100.175,512.117,320.078,292.214,320.078,292.214C323.807,288.485,325.687,284.192,325.687,279.335C325.687,274.478,323.807,270.186,320.078,266.457C320.078,266.457,320.078,266.52,320.078,266.52M650.748,863.529C650.748,863.529,442.031,141.152,442.031,141.152C440.558,136.295,437.644,132.66,433.351,130.247C429.059,127.835,424.672,127.365,420.191,128.837C420.191,128.837,385.504,138.363,385.504,138.363C380.647,139.836,377.012,142.75,374.6,147.042C372.187,151.335,371.717,155.91,373.19,160.767C373.19,160.767,581.906,883.144,581.906,883.144C583.379,888.001,586.293,891.636,590.586,894.049C594.879,896.461,599.266,896.931,603.746,895.459C603.746,895.459,638.433,885.933,638.433,885.933C643.29,884.46,646.925,881.546,649.338,877.253C651.75,872.961,652.22,868.386,650.748,863.529C650.748,863.529,650.748,863.529,650.748,863.529M1018.391,499.27C1018.391,499.27,757.66,238.538,757.66,238.538C753.931,234.809,749.638,232.929,744.781,232.929C739.925,232.929,735.632,234.809,731.903,238.538C731.903,238.538,703.922,266.52,703.922,266.52C700.193,270.248,698.313,274.541,698.313,279.398C698.313,284.255,700.193,288.547,703.922,292.276C703.922,292.276,923.825,512.179,923.825,512.179C923.825,512.179,703.922,732.082,703.922,732.082C700.193,735.811,698.313,740.104,698.313,744.961C698.313,749.817,700.193,754.11,703.922,757.839C703.922,757.839,731.903,785.82,731.903,785.82C735.632,789.549,739.925,791.429,744.781,791.429C749.638,791.429,753.931,789.549,757.66,785.82C757.66,785.82,1018.391,525.089,1018.391,525.089C1022.12,521.36,1024,517.067,1024,512.211C1024,507.354,1022.12,503.061,1018.391,499.332C1018.391,499.332,1018.391,499.27,1018.391,499.27" class="sf-code"/><glyph unicode="&#x0053;" d="M683.067,511.963C683.067,559.075,666.417,599.281,633.08,632.618C599.743,665.955,559.538,682.604,512.425,682.604C465.313,682.604,425.107,665.955,391.77,632.618C358.433,599.281,341.784,559.075,341.784,511.963C341.784,464.85,358.433,424.645,391.77,391.308C425.107,357.971,465.313,341.321,512.425,341.321C559.538,341.321,599.743,357.971,633.08,391.308C666.417,424.645,683.067,464.85,683.067,511.963C683.067,511.963,683.067,511.963,683.067,511.963M1024.388,584.61C1024.388,584.61,1024.388,436.628,1024.388,436.628C1024.388,431.29,1022.596,426.175,1019.05,421.285C1015.503,416.394,1011.061,413.482,1005.722,412.624C1005.722,412.624,882.379,393.958,882.379,393.958C873.943,369.954,865.282,349.758,856.397,333.295C871.964,311.082,895.744,280.396,927.737,241.31C932.179,235.972,934.419,230.447,934.419,224.66C934.419,218.874,932.403,213.76,928.409,209.317C916.426,192.854,894.4,168.85,862.407,137.305C830.414,105.76,809.509,89.969,799.728,89.969C794.389,89.969,788.64,91.985,782.406,95.979C782.406,95.979,690.421,167.991,690.421,167.991C670.86,157.762,650.626,149.326,629.758,142.643C622.628,82.204,616.207,40.878,610.42,18.666C607.322,6.234,599.295,0,586.416,0C586.416,0,438.435,0,438.435,0C432.2,0,426.75,1.904,422.083,5.674C417.417,9.445,414.841,14.223,414.43,20.01C414.43,20.01,395.765,142.681,395.765,142.681C374.001,149.811,353.991,158.024,335.773,167.357C335.773,167.357,241.773,96.016,241.773,96.016C237.33,92.022,231.768,90.006,225.123,90.006C218.889,90.006,213.364,92.433,208.473,97.323C152.476,147.982,115.817,185.313,98.495,209.317C95.396,213.76,93.828,218.874,93.828,224.66C93.828,229.999,95.62,235.113,99.167,240.003C105.849,249.336,117.161,264.12,133.176,284.353C149.191,304.587,161.174,320.266,169.163,331.353C157.18,353.566,148.071,375.591,141.837,397.355C141.837,397.355,19.838,415.349,19.838,415.349C14.051,416.245,9.385,419.008,5.838,423.674C2.292,428.34,0.5,433.567,0.5,439.353C0.5,439.353,0.5,587.335,0.5,587.335C0.5,592.673,2.292,597.788,5.838,602.678C9.385,607.568,13.603,610.48,18.494,611.339C18.494,611.339,142.471,630.005,142.471,630.005C148.706,650.425,157.366,670.882,168.454,691.34C150.684,716.688,126.904,747.337,97.114,783.325C92.671,788.663,90.431,794.001,90.431,799.34C90.431,803.782,92.447,808.897,96.442,814.683C107.977,830.698,129.891,854.59,162.108,886.359C194.325,918.128,215.342,934.031,225.123,934.031C230.909,934.031,236.658,931.791,242.445,927.349C242.445,927.349,334.429,856.009,334.429,856.009C353.991,866.238,374.225,874.674,395.093,881.357C402.223,941.796,408.644,983.122,414.43,1005.334C417.529,1017.766,425.555,1024,438.435,1024C438.435,1024,586.416,1024,586.416,1024C592.65,1024,598.101,1022.096,602.767,1018.326C607.434,1014.555,610.01,1009.777,610.42,1003.99C610.42,1003.99,629.086,881.319,629.086,881.319C650.85,874.189,670.86,865.976,689.077,856.643C689.077,856.643,783.75,927.984,783.75,927.984C787.744,931.978,793.083,933.994,799.765,933.994C805.551,933.994,811.076,931.754,816.415,927.312C873.756,874.413,910.415,836.634,926.393,813.974C929.492,810.427,931.06,805.537,931.06,799.302C931.06,793.964,929.268,788.85,925.721,783.959C919.039,774.626,907.727,759.843,891.712,739.609C875.697,719.376,863.714,703.697,855.725,692.609C867.26,670.397,876.369,648.596,883.051,627.279C883.051,627.279,1005.05,608.614,1005.05,608.614C1010.837,607.718,1015.503,604.955,1019.05,600.289C1022.596,595.622,1024.388,590.396,1024.388,584.61C1024.388,584.61,1024.388,584.61,1024.388,584.61" class="sf-configure"/><glyph unicode="&#x0054;" d="M1007.313,405.792C1007.313,403.59,1007.089,402.022,1006.642,401.126C978.196,282.006,918.655,185.47,827.98,111.482C737.305,37.494,631.101,0.5,509.331,0.5C444.451,0.5,381.662,12.707,321.001,37.158C260.34,61.609,206.211,96.476,158.69,141.831C158.69,141.831,72.682,55.823,72.682,55.823C64.245,47.387,54.241,43.168,42.668,43.168C31.096,43.168,21.091,47.387,12.655,55.823C4.218,64.26,0,74.264,0,85.836C0,85.836,0,384.477,0,384.477C0,396.012,4.218,406.016,12.655,414.49C21.091,422.964,31.096,427.182,42.668,427.145C42.668,427.145,341.308,427.145,341.308,427.145C352.843,427.145,362.848,422.927,371.322,414.49C379.796,406.053,384.014,396.049,383.977,384.477C383.939,372.904,379.721,362.9,371.322,354.463C371.322,354.463,280.013,263.154,280.013,263.154C311.556,233.813,347.356,211.153,387.336,195.176C427.317,179.199,468.865,171.21,511.981,171.173C571.523,171.173,627.07,185.62,678.623,214.513C730.175,243.406,771.5,283.163,802.596,333.82C807.486,341.398,819.245,367.38,837.91,411.802C841.456,422.031,848.138,427.145,857.919,427.145C857.919,427.145,985.923,427.145,985.923,427.145C991.71,427.145,996.712,425.017,1000.93,420.799C1005.148,416.58,1007.276,411.578,1007.276,405.792C1007.276,405.792,1007.313,405.792,1007.313,405.792M1024,939.089C1024,939.089,1024,640.449,1024,640.449C1024,628.914,1019.782,618.909,1011.345,610.435C1002.909,601.961,992.904,597.743,981.332,597.78C981.332,597.78,682.692,597.78,682.692,597.78C671.157,597.78,661.152,601.999,652.678,610.435C644.204,618.872,639.986,628.876,640.023,640.449C640.061,652.021,644.279,662.025,652.678,670.462C652.678,670.462,744.659,762.443,744.659,762.443C678.884,823.328,601.349,853.752,512.019,853.752C452.477,853.752,396.93,839.306,345.377,810.412C293.825,781.519,252.5,741.762,221.404,691.106C216.514,683.528,204.755,657.546,186.09,613.123C182.544,602.895,175.862,597.78,166.081,597.78C166.081,597.78,33.41,597.78,33.41,597.78C27.624,597.78,22.622,599.908,18.404,604.127C14.185,608.345,12.058,613.347,12.058,619.133C12.058,619.133,12.058,623.799,12.058,623.799C40.951,742.92,100.94,839.455,192.026,913.443C283.111,987.431,389.763,1024.425,511.981,1024.425C576.861,1024.425,639.949,1012.106,701.282,987.431C762.615,962.756,817.042,928.002,864.601,883.094C864.601,883.094,951.244,969.102,951.244,969.102C959.68,977.539,969.685,981.757,981.257,981.757C992.829,981.757,1002.834,977.539,1011.27,969.102C1019.707,960.666,1023.925,950.661,1023.925,939.089C1023.925,939.089,1024,939.089,1024,939.089" class="sf-refresh"/><glyph unicode="&#x0055;" d="M838.296,535.776C838.296,535.776,838.296,489.224,838.296,489.224C838.296,482.423,836.097,476.843,831.739,472.486C827.381,468.128,821.802,465.929,815,465.929C815,465.929,209.918,465.929,209.918,465.929C203.117,465.929,197.537,468.128,193.18,472.486C188.822,476.843,186.623,482.423,186.623,489.224C186.623,489.224,186.623,535.776,186.623,535.776C186.623,542.577,188.822,548.157,193.18,552.514C197.537,556.872,203.117,559.071,209.918,559.071C209.918,559.071,815,559.071,815,559.071C821.802,559.071,827.381,556.872,831.739,552.514C836.097,548.157,838.296,542.577,838.296,535.776C838.296,535.776,838.296,535.776,838.296,535.776M931.398,209.959C931.398,209.959,931.398,815.041,931.398,815.041C931.398,847.052,919.994,874.462,897.228,897.228C874.462,919.994,847.052,931.398,815.041,931.398C815.041,931.398,209.959,931.398,209.959,931.398C177.948,931.398,150.538,919.994,127.772,897.228C105.006,874.462,93.602,847.052,93.602,815.041C93.602,815.041,93.602,209.959,93.602,209.959C93.602,177.948,105.006,150.538,127.772,127.772C150.538,105.006,177.948,93.602,209.959,93.602C209.959,93.602,815.041,93.602,815.041,93.602C847.052,93.602,874.462,105.006,897.228,127.772C919.994,150.538,931.398,177.948,931.398,209.959C931.398,209.959,931.398,209.959,931.398,209.959M1024.5,815.041C1024.5,815.041,1024.5,209.959,1024.5,209.959C1024.5,152.249,1004.014,102.929,963.043,61.957C922.071,20.986,872.751,0.5,815.041,0.5C815.041,0.5,209.959,0.5,209.959,0.5C152.249,0.5,102.929,20.986,61.957,61.957C20.986,102.929,0.5,152.249,0.5,209.959C0.5,209.959,0.5,815.041,0.5,815.041C0.5,872.751,20.986,922.071,61.957,963.043C102.929,1004.014,152.249,1024.5,209.959,1024.5C209.959,1024.5,815.041,1024.5,815.041,1024.5C872.751,1024.5,922.071,1004.014,963.043,963.043C1004.014,922.071,1024.5,872.751,1024.5,815.041C1024.5,815.041,1024.5,815.041,1024.5,815.041" class="sf-close"/><glyph unicode="&#x0056;" d="M796.461,540.449C796.461,540.449,796.461,483.551,796.461,483.551C796.461,475.238,793.773,468.419,788.447,463.092C783.12,457.766,776.301,455.078,767.988,455.078C767.988,455.078,568.872,455.078,568.872,455.078C568.872,455.078,568.872,255.963,568.872,255.963C568.872,247.65,566.184,240.83,560.858,235.504C555.532,230.177,548.712,227.489,540.399,227.489C540.399,227.489,483.502,227.489,483.502,227.489C475.189,227.489,468.369,230.177,463.043,235.504C457.716,240.83,455.028,247.65,455.028,255.963C455.028,255.963,455.028,455.078,455.028,455.078C455.028,455.078,255.913,455.078,255.913,455.078C247.6,455.078,240.78,457.766,235.454,463.092C230.127,468.419,227.439,475.238,227.439,483.551C227.439,483.551,227.439,540.449,227.439,540.449C227.439,548.762,230.127,555.581,235.454,560.908C240.78,566.234,247.6,568.922,255.913,568.922C255.913,568.922,455.028,568.922,455.028,568.922C455.028,568.922,455.028,768.037,455.028,768.037C455.028,776.35,457.716,783.17,463.043,788.496C468.369,793.823,475.189,796.511,483.502,796.511C483.502,796.511,540.399,796.511,540.399,796.511C548.712,796.511,555.532,793.823,560.858,788.496C566.184,783.17,568.872,776.35,568.872,768.037C568.872,768.037,568.872,568.922,568.872,568.922C568.872,568.922,767.988,568.922,767.988,568.922C776.301,568.922,783.12,566.234,788.447,560.908C793.773,555.581,796.461,548.762,796.461,540.449C796.461,540.449,796.461,540.449,796.461,540.449M910.255,199.065C910.255,199.065,910.255,824.835,910.255,824.835C910.255,848.53,901.942,868.69,885.366,885.266C868.79,901.843,848.629,910.156,824.935,910.156C824.935,910.156,199.165,910.156,199.165,910.156C175.47,910.156,155.31,901.843,138.734,885.266C122.157,868.69,113.844,848.53,113.844,824.835C113.844,824.835,113.844,199.065,113.844,199.065C113.844,175.371,122.157,155.21,138.734,138.634C155.31,122.058,175.47,113.745,199.165,113.745C199.165,113.745,824.935,113.745,824.935,113.745C848.629,113.745,868.79,122.058,885.366,138.634C901.942,155.21,910.255,175.371,910.255,199.065C910.255,199.065,910.255,199.065,910.255,199.065M1024,824.885C1024,824.885,1024,199.115,1024,199.115C1024,144.607,1004.586,97.766,965.759,58.689C926.931,19.613,879.99,0.05,824.885,0C824.885,0,199.115,0,199.115,0C144.01,0,97.019,19.563,58.241,58.689C19.464,97.815,0.05,144.607,0,199.115C0,199.115,0,824.885,0,824.885C0,879.99,19.414,926.981,58.241,965.759C97.069,1004.536,144.01,1023.95,199.115,1024C199.115,1024,824.885,1024,824.885,1024C879.99,1024,926.981,1004.586,965.759,965.759C1004.536,926.931,1023.95,879.99,1024,824.885C1024,824.885,1024,824.885,1024,824.885" class="sf-open"/><glyph unicode="&#x0057;" d="M945.255,216.813C945.255,216.813,945.255,650.033,945.255,650.033C945.255,666.437,939.499,680.394,928.024,691.87C916.548,703.346,902.591,709.101,886.187,709.101C886.187,709.101,452.967,709.101,452.967,709.101C436.563,709.101,422.606,714.856,411.13,726.332C399.654,737.808,393.899,751.765,393.899,768.168C393.899,768.168,393.899,807.558,393.899,807.558C393.899,823.962,388.144,837.919,376.668,849.395C365.192,860.871,351.235,866.626,334.832,866.626C334.832,866.626,137.916,866.626,137.916,866.626C121.513,866.626,107.555,860.871,96.08,849.395C84.604,837.919,78.849,823.962,78.849,807.558C78.849,807.558,78.849,216.779,78.849,216.779C78.849,200.375,84.604,186.418,96.08,174.942C107.555,163.466,121.513,157.711,137.916,157.711C137.916,157.711,886.221,157.711,886.221,157.711C902.625,157.711,916.582,163.466,928.058,174.942C939.534,186.418,945.289,200.375,945.289,216.779C945.289,216.779,945.255,216.813,945.255,216.813M1024,650.068C1024,650.068,1024,216.847,1024,216.847C1024,179.112,1010.456,146.683,983.369,119.631C956.282,92.578,923.888,79.034,886.153,79C886.153,79,137.847,79,137.847,79C100.112,79,67.683,92.544,40.631,119.631C13.578,146.718,0.034,179.112,0,216.847C0,216.847,0,807.627,0,807.627C0,845.363,13.544,877.792,40.631,904.844C67.718,931.897,100.112,945.44,137.847,945.475C137.847,945.475,334.763,945.475,334.763,945.475C372.498,945.475,404.927,931.931,431.98,904.844C459.032,877.757,472.576,845.363,472.61,807.627C472.61,807.627,472.61,787.95,472.61,787.95C472.61,787.95,886.153,787.95,886.153,787.95C923.888,787.95,956.317,774.406,983.369,747.319C1010.422,720.232,1023.966,687.838,1024,650.102C1024,650.102,1024,650.068,1024,650.068" class="sf-folder-closed"/><glyph unicode="&#x0058;" d="M955.361,459.042C955.361,471.568,945.899,477.816,926.944,477.816C926.944,477.816,343.316,477.816,343.316,477.816C329.017,477.816,313.727,473.971,297.446,466.281C281.165,458.591,268.369,449.189,259.087,438.104C259.087,438.104,101.382,243.392,101.382,243.392C94.953,234.8,91.739,227.651,91.739,221.944C91.739,209.417,101.201,203.169,120.156,203.169C120.156,203.169,703.784,203.169,703.784,203.169C718.083,203.169,733.463,207.104,749.924,214.975C766.385,222.845,779.092,232.307,788.013,243.392C788.013,243.392,945.718,438.104,945.718,438.104C952.147,445.975,955.361,452.944,955.361,459.012C955.361,459.012,955.361,459.042,955.361,459.042M343.316,546.485C343.316,546.485,755.271,546.485,755.271,546.485C755.271,546.485,755.271,632.307,755.271,632.307C755.271,646.605,750.254,658.771,740.251,668.774C730.248,678.777,718.083,683.794,703.784,683.794C703.784,683.794,394.803,683.794,394.803,683.794C380.504,683.794,368.338,688.81,358.335,698.813C348.332,708.816,343.316,720.982,343.316,735.28C343.316,735.28,343.316,769.615,343.316,769.615C343.316,783.914,338.299,796.079,328.296,806.082C318.293,816.085,306.128,821.102,291.829,821.102C291.829,821.102,120.186,821.102,120.186,821.102C105.888,821.102,93.722,816.085,83.719,806.082C73.716,796.079,68.699,783.914,68.699,769.615C68.699,769.615,68.699,312.061,68.699,312.061C68.699,312.061,206.008,481.03,206.008,481.03C221.748,499.985,242.475,515.635,268.218,527.981C293.962,540.327,318.984,546.515,343.316,546.485C343.316,546.485,343.316,546.485,343.316,546.485M1024,459.042C1024,436.873,1015.769,415.425,999.338,394.668C999.338,394.668,841.092,199.955,841.092,199.955C825.712,181.001,804.986,165.35,778.882,153.004C752.778,140.658,727.755,134.47,703.784,134.5C703.784,134.5,120.156,134.5,120.156,134.5C87.263,134.5,58.997,146.305,35.416,169.916C11.835,193.527,0.03,221.763,0,254.656C0,254.656,0,769.615,0,769.615C0,802.508,11.805,830.774,35.416,854.355C59.027,877.936,87.263,889.741,120.156,889.771C120.156,889.771,291.799,889.771,291.799,889.771C324.692,889.771,352.958,877.966,376.539,854.355C400.12,830.744,411.925,802.508,411.955,769.615C411.955,769.615,411.955,752.463,411.955,752.463C411.955,752.463,703.754,752.463,703.754,752.463C736.647,752.463,764.913,740.657,788.494,717.047C812.075,693.436,823.88,665.199,823.91,632.307C823.91,632.307,823.91,546.485,823.91,546.485C823.91,546.485,926.914,546.485,926.914,546.485C946.229,546.485,963.922,542.1,980.023,533.328C996.124,524.557,1008.109,511.94,1015.95,495.509C1021.327,484.064,1024,471.928,1024,459.042C1024,459.042,1024,459.042,1024,459.042" class="sf-folder-opened"/><glyph unicode="&#x0059;" d="M1024.5,200.483C1024.5,177.506,1016.439,157.957,1000.365,141.883C1000.365,141.883,883.117,24.635,883.117,24.635C867.043,8.561,847.494,0.5,824.517,0.5C801.541,0.5,781.991,8.561,765.918,24.635C765.918,24.635,512.5,278.053,512.5,278.053C512.5,278.053,259.082,24.635,259.082,24.635C243.009,8.561,223.459,0.5,200.483,0.5C177.506,0.5,157.957,8.561,141.883,24.635C141.883,24.635,24.635,141.883,24.635,141.883C8.561,157.957,0.5,177.506,0.5,200.483C0.5,223.459,8.561,243.009,24.635,259.082C24.635,259.082,278.053,512.5,278.053,512.5C278.053,512.5,24.635,765.918,24.635,765.918C8.561,781.991,0.5,801.541,0.5,824.517C0.5,847.494,8.561,867.043,24.635,883.117C24.635,883.117,141.883,1000.365,141.883,1000.365C157.957,1016.439,177.506,1024.5,200.483,1024.5C223.459,1024.5,243.009,1016.439,259.082,1000.365C259.082,1000.365,512.5,746.947,512.5,746.947C512.5,746.947,765.918,1000.365,765.918,1000.365C781.991,1016.439,801.541,1024.5,824.517,1024.5C847.494,1024.5,867.043,1016.439,883.117,1000.365C883.117,1000.365,1000.365,883.117,1000.365,883.117C1016.439,867.043,1024.5,847.494,1024.5,824.517C1024.5,801.541,1016.439,781.991,1000.365,765.918C1000.365,765.918,746.947,512.5,746.947,512.5C746.947,512.5,1000.365,259.082,1000.365,259.082C1016.439,243.009,1024.5,223.459,1024.5,200.483C1024.5,200.483,1024.5,200.483,1024.5,200.483" class="sf-remove"/><glyph unicode="&#x005a;" d="M1024,288.007C1024,270.703,1017.672,255.696,1005.016,242.984C992.361,230.272,977.353,223.944,959.993,224C959.993,224,64.007,224,64.007,224C46.703,224,31.696,230.328,18.984,242.984C6.272,255.64,-0.056,270.647,0,288.007C0.056,305.367,6.384,320.375,18.984,333.03C18.984,333.03,466.977,781.023,466.977,781.023C479.633,793.679,494.64,800.007,512,800.007C529.36,800.007,544.368,793.679,557.023,781.023C557.023,781.023,1005.016,333.03,1005.016,333.03C1017.672,320.375,1024,305.367,1024,288.007C1024,288.007,1024,288.007,1024,288.007" class="sf-caret-up"/><glyph unicode="&#x0061;" d="M1024,736C1024,718.696,1017.672,703.689,1005.016,690.977C1005.016,690.977,557.023,242.984,557.023,242.984C544.367,230.328,529.36,224,512,224C494.64,224,479.633,230.328,466.977,242.984C466.977,242.984,18.984,690.977,18.984,690.977C6.328,703.633,0,718.64,0,736C0,753.36,6.328,768.367,18.984,781.023C31.64,793.679,46.647,800.007,64.007,800.007C64.007,800.007,959.993,800.007,959.993,800.007C977.297,800.007,992.304,793.679,1005.016,781.023C1017.728,768.367,1024.056,753.36,1024,736C1024,736,1024,736,1024,736" class="sf-caret-down"/><glyph unicode="&#x0062;" d="M884.705,372.353C884.705,359.768,880.103,348.854,870.899,339.609C870.899,339.609,545.096,13.806,545.096,13.806C535.892,4.602,524.977,0,512.353,0C499.728,0,488.813,4.602,479.609,13.806C479.609,13.806,153.806,339.609,153.806,339.609C144.602,348.813,140,359.728,140,372.353C140,384.977,144.602,395.892,153.806,405.096C163.01,414.3,173.924,418.902,186.549,418.902C186.549,418.902,838.156,418.902,838.156,418.902C850.74,418.902,861.654,414.3,870.899,405.096C880.144,395.892,884.746,384.977,884.705,372.353C884.705,372.353,884.705,372.353,884.705,372.353M884.705,651.647C884.705,639.063,880.103,628.149,870.899,618.904C861.695,609.66,850.781,605.058,838.156,605.098C838.156,605.098,186.549,605.098,186.549,605.098C173.965,605.098,163.051,609.7,153.806,618.904C144.561,628.108,139.959,639.023,140,651.647C140.041,664.272,144.643,675.187,153.806,684.391C153.806,684.391,479.609,1010.194,479.609,1010.194C488.813,1019.398,499.728,1024,512.353,1024C524.977,1024,535.892,1019.398,545.096,1010.194C545.096,1010.194,870.899,684.391,870.899,684.391C880.103,675.187,884.705,664.272,884.705,651.647C884.705,651.647,884.705,651.647,884.705,651.647" class="sf-caret-double"/><glyph unicode="&#x0063;" d="M512.015,597.539C554.337,597.539,590.506,582.516,620.553,552.47C650.599,522.423,665.622,486.254,665.622,443.932C665.622,401.61,650.599,365.441,620.553,335.394C590.506,305.348,554.337,290.324,512.015,290.324C469.693,290.324,433.524,305.348,403.477,335.394C373.431,365.441,358.407,401.61,358.407,443.932C358.407,486.254,373.431,522.423,403.477,552.47C433.524,582.516,469.693,597.539,512.015,597.539C512.015,597.539,512.015,597.539,512.015,597.539M887.477,819.423C925.169,819.423,957.336,806.103,984.008,779.431C1010.679,752.76,1024,720.593,1024,682.9C1024,682.9,1024,205.023,1024,205.023C1024,167.331,1010.679,135.164,984.008,108.492C957.336,81.821,925.169,68.5,887.477,68.5C887.477,68.5,136.523,68.5,136.523,68.5C98.831,68.5,66.664,81.821,39.992,108.492C13.321,135.164,0,167.331,0,205.023C0,205.023,0,682.9,0,682.9C0,720.593,13.321,752.76,39.992,779.431C66.664,806.103,98.831,819.423,136.523,819.423C136.523,819.423,255.993,819.423,255.993,819.423C255.993,819.423,283.202,891.971,283.202,891.971C289.952,909.384,302.317,924.407,320.267,937.041C338.217,949.675,356.615,955.977,375.462,955.977C375.462,955.977,648.538,955.977,648.538,955.977C667.385,955.977,685.783,949.675,703.733,937.041C721.683,924.407,734.048,909.384,740.798,891.971C740.798,891.971,768.007,819.423,768.007,819.423C768.007,819.423,887.477,819.423,887.477,819.423C887.477,819.423,887.477,819.423,887.477,819.423M512.015,204.994C577.813,204.994,634.083,228.38,680.825,275.122C727.567,321.864,750.953,378.134,750.953,443.932C750.953,509.729,727.567,565.999,680.825,612.742C634.083,659.484,577.813,682.87,512.015,682.87C446.217,682.87,389.947,659.484,343.205,612.742C296.463,565.999,273.077,509.729,273.077,443.932C273.077,378.134,296.463,321.864,343.205,275.122C389.947,228.38,446.217,204.994,512.015,204.994C512.015,204.994,512.015,204.994,512.015,204.994" class="sf-picture"/><glyph unicode="&#x0064;" d="M945.381,409.339C965.801,397.803,979.054,380.556,985.064,357.672C991.075,334.788,988.312,313.098,976.739,292.678C976.739,292.678,934.07,219.359,934.07,219.359C922.534,198.939,905.287,185.686,882.403,179.676C859.519,173.666,837.829,176.428,817.409,188.001C817.409,188.001,640.085,289.99,640.085,289.99C640.085,289.99,640.085,85.34,640.085,85.34C640.085,62.231,631.648,42.222,614.737,25.348C597.826,8.474,577.853,0.037,554.745,0C554.745,0,469.406,0,469.406,0C446.298,0,426.288,8.437,409.414,25.348C392.54,42.259,384.103,62.231,384.066,85.34C384.066,85.34,384.066,289.99,384.066,289.99C384.066,289.99,206.742,188.001,206.742,188.001C186.322,176.465,164.632,173.666,141.748,179.676C118.864,185.686,101.617,198.902,90.081,219.359C90.081,219.359,47.412,292.678,47.412,292.678C35.876,313.098,33.076,334.788,39.087,357.672C45.097,380.556,58.312,397.803,78.77,409.339C78.77,409.339,256.094,512,256.094,512C256.094,512,78.77,614.661,78.77,614.661C58.35,626.197,45.097,643.444,39.087,666.328C33.076,689.212,35.839,710.902,47.412,731.322C47.412,731.322,90.081,804.641,90.081,804.641C101.617,825.061,118.864,838.314,141.748,844.324C164.632,850.334,186.322,847.572,206.742,835.999C206.742,835.999,384.066,734.01,384.066,734.01C384.066,734.01,384.066,938.66,384.066,938.66C384.066,961.769,392.503,981.778,409.414,998.652C426.325,1015.526,446.298,1023.963,469.406,1024C469.406,1024,554.745,1024,554.745,1024C577.853,1024,597.863,1015.563,614.737,998.652C631.611,981.741,640.047,961.769,640.085,938.66C640.085,938.66,640.085,734.01,640.085,734.01C640.085,734.01,817.409,835.999,817.409,835.999C837.829,847.535,859.519,850.334,882.403,844.324C905.287,838.314,922.534,825.098,934.07,804.641C934.07,804.641,976.739,731.322,976.739,731.322C988.275,710.902,991.075,689.212,985.064,666.328C979.054,643.444,965.839,626.197,945.381,614.661C945.381,614.661,768.057,512,768.057,512C768.057,512,945.381,409.339,945.381,409.339" class="sf-required"/><glyph unicode="&#x0065;" d="M873.803,512.835C873.803,584.17,854.527,649.515,815.975,708.868C815.975,708.868,314.953,208.515,314.953,208.515C375.646,169.108,441.437,149.385,512.325,149.385C561.483,149.385,608.332,159.023,652.875,178.299C697.418,197.575,735.821,223.363,768.158,255.7C800.495,288.037,826.172,326.663,845.224,371.653C864.277,416.642,873.803,463.715,873.803,512.872C873.803,512.872,873.803,512.835,873.803,512.835M209.941,314.123C209.941,314.123,711.633,815.145,711.633,815.145C651.833,855.446,585.373,875.615,512.288,875.615C446.721,875.615,386.251,859.428,330.88,827.09C275.508,794.753,231.635,750.657,199.298,694.839C166.961,639.021,150.774,578.328,150.774,512.76C150.774,440.979,170.496,374.778,209.903,314.086C209.903,314.086,209.941,314.123,209.941,314.123M1022.651,512.835C1022.651,443.286,1009.143,376.825,982.127,313.49C955.111,250.155,918.904,195.677,873.468,150.018C828.032,104.359,773.777,68.04,710.665,41.024C647.554,14.008,581.428,0.5,512.325,0.5C443.223,0.5,377.097,14.008,313.985,41.024C250.874,68.04,196.619,104.359,151.183,150.018C105.747,195.677,69.54,250.155,42.524,313.49C15.508,376.825,2,443.286,2,512.835C2,582.384,15.508,648.733,42.524,711.845C69.54,774.956,105.747,829.323,151.183,874.982C196.619,920.641,250.874,956.96,313.985,983.976C377.097,1010.992,443.223,1024.5,512.325,1024.5C581.428,1024.5,647.554,1010.992,710.665,983.976C773.777,956.96,828.032,920.641,873.468,874.982C918.904,829.323,955.111,774.956,982.127,711.845C1009.143,648.733,1022.651,582.384,1022.651,512.835C1022.651,512.835,1022.651,512.835,1022.651,512.835" class="sf-disabled"/><glyph unicode="&#x0066;" d="M1023.936,655.084C1023.936,655.084,1023.936,201.413,1023.936,201.413C1023.936,176.264,1014.977,154.73,997.091,136.845C979.206,118.959,957.672,110,932.523,110C932.523,110,91.477,110,91.477,110C66.328,110,44.794,118.959,26.909,136.845C9.023,154.73,0.064,176.264,0.064,201.413C0.064,201.413,0.064,655.084,0.064,655.084C16.83,636.43,36.059,619.856,57.785,605.362C195.656,511.646,290.332,445.958,341.749,408.235C363.475,392.237,381.072,379.758,394.607,370.799C408.141,361.841,426.123,352.69,448.616,343.379C471.109,334.068,492.034,329.397,511.456,329.365C511.456,329.365,512.608,329.365,512.608,329.365C532.029,329.365,552.987,334.036,575.448,343.379C597.909,352.722,615.923,361.873,629.457,370.799C642.992,379.726,660.621,392.205,682.315,408.235C747.075,455.077,841.911,520.797,966.855,605.362C988.58,620.208,1007.618,636.782,1024,655.084C1024,655.084,1023.936,655.084,1023.936,655.084M1023.936,823.063C1023.936,792.955,1014.593,764.222,995.94,736.802C977.286,709.381,954.025,685.96,926.22,666.538C783.006,567.127,693.865,505.215,658.83,480.834C655.022,478.178,646.927,472.355,634.545,463.396C622.162,454.437,611.892,447.206,603.701,441.671C595.51,436.135,585.591,429.96,573.976,423.113C562.362,416.266,551.387,411.114,541.116,407.691C530.846,404.267,521.311,402.539,512.544,402.539C512.544,402.539,511.392,402.539,511.392,402.539C502.625,402.539,493.09,404.267,482.82,407.691C472.549,411.114,461.574,416.266,449.96,423.113C438.345,429.96,428.426,436.135,420.235,441.671C412.044,447.206,401.774,454.437,389.391,463.396C377.009,472.355,368.914,478.178,365.106,480.834C330.455,505.215,280.541,539.962,215.397,585.109C150.253,630.255,111.218,657.388,98.26,666.538C74.647,682.536,52.377,704.55,31.42,732.546C10.463,760.543,0,786.555,0,810.552C0,840.277,7.903,865.01,23.709,884.815C39.515,904.621,62.072,914.507,91.413,914.539C91.413,914.539,932.459,914.539,932.459,914.539C957.224,914.539,978.662,905.581,996.739,887.695C1014.817,869.809,1023.872,848.276,1023.872,823.127C1023.872,823.127,1023.936,823.063,1023.936,823.063" class="sf-email"/><glyph unicode="&#x0067;" d="M337.917,204.814C337.917,179.226,328.85,157.472,310.716,139.553C292.582,121.634,270.936,112.675,245.742,112.675C220.154,112.675,198.4,121.634,180.481,139.553C162.562,157.472,153.602,179.226,153.602,204.814C153.602,230.403,162.562,252.156,180.481,270.075C198.4,287.994,220.154,296.954,245.742,296.954C270.936,296.954,292.582,287.994,310.716,270.075C328.85,252.156,337.917,230.403,337.917,204.814C337.917,204.814,337.917,204.814,337.917,204.814M614.372,81.926C614.372,59.312,606.38,40.031,590.36,24.011C574.341,7.992,555.06,0,532.446,0C509.832,0,490.552,7.992,474.532,24.011C458.512,40.031,450.521,59.312,450.521,81.926C450.521,104.54,458.512,123.82,474.532,139.84C490.552,155.86,509.832,163.851,532.446,163.851C555.06,163.851,574.341,155.86,590.36,139.84C606.38,123.82,614.372,104.54,614.372,81.926C614.372,81.926,614.372,81.926,614.372,81.926M225.278,491.519C225.278,463.35,215.244,439.231,195.21,419.197C175.177,399.164,151.058,389.129,122.889,389.129C94.721,389.129,70.602,399.164,50.568,419.197C30.535,439.231,20.5,463.35,20.5,491.519C20.5,519.687,30.535,543.806,50.568,563.84C70.602,583.873,94.721,593.908,122.889,593.908C151.058,593.908,175.177,583.873,195.21,563.84C215.244,543.806,225.278,519.687,225.278,491.519C225.278,491.519,225.278,491.519,225.278,491.519M890.862,204.814C890.862,185.211,883.838,168.331,869.754,154.247C855.669,140.163,838.826,133.102,819.186,133.138C799.547,133.174,782.703,140.198,768.619,154.247C754.535,168.295,747.51,185.139,747.51,204.814C747.51,224.489,754.535,241.333,768.619,255.382C782.703,269.43,799.547,276.455,819.186,276.49C838.826,276.526,855.669,269.466,869.754,255.382C883.838,241.297,890.862,224.418,890.862,204.814C890.862,204.814,890.862,204.814,890.862,204.814M358.417,778.223C358.417,747.08,347.414,720.524,325.446,698.555C303.477,676.586,276.921,665.62,245.778,665.584C214.635,665.548,188.079,676.55,166.11,698.555C144.141,720.559,133.139,747.115,133.139,778.223C133.139,809.33,144.141,835.886,166.11,857.891C188.079,879.895,214.635,890.898,245.778,890.862C276.921,890.826,303.477,879.859,325.446,857.891C347.414,835.922,358.417,809.366,358.417,778.223C358.417,778.223,358.417,778.223,358.417,778.223M655.335,901.111C655.335,866.958,643.401,837.965,619.497,814.061C595.593,790.157,566.6,778.223,532.446,778.223C498.293,778.223,469.3,790.157,445.396,814.061C421.492,837.965,409.558,866.958,409.558,901.111C409.558,935.265,421.492,964.258,445.396,988.162C469.3,1012.066,498.293,1024,532.446,1024C566.6,1024,595.593,1012.066,619.497,988.162C643.401,964.258,655.335,935.265,655.335,901.111C655.335,901.111,655.335,901.111,655.335,901.111M1003.501,491.519C1003.501,474.46,997.516,459.945,985.582,448.011C973.648,436.077,959.134,430.092,942.075,430.092C925.016,430.092,910.502,436.077,898.568,448.011C886.633,459.945,880.649,474.46,880.649,491.519C880.649,508.577,886.633,523.092,898.568,535.026C910.502,546.96,925.016,552.945,942.075,552.945C959.134,552.945,973.648,546.96,985.582,535.026C997.516,523.092,1003.501,508.577,1003.501,491.519C1003.501,491.519,1003.501,491.519,1003.501,491.519M870.363,778.223C870.363,764.138,865.346,752.097,855.311,742.062C845.276,732.028,833.235,727.01,819.15,727.01C805.066,727.01,793.025,732.028,782.99,742.062C772.955,752.097,767.938,764.138,767.938,778.223C767.938,792.307,772.955,804.349,782.99,814.383C793.025,824.418,805.066,829.435,819.15,829.435C833.235,829.435,845.276,824.418,855.311,814.383C865.346,804.349,870.363,792.307,870.363,778.223C870.363,778.223,870.363,778.223,870.363,778.223" class="sf-loading"/><glyph unicode="&#x0068;" d="M384.321,619.193C384.321,619.193,384.321,235.202,384.321,235.202C384.321,228.968,382.305,223.854,378.311,219.859C374.316,215.865,369.202,213.849,362.967,213.849C362.967,213.849,320.298,213.849,320.298,213.849C314.063,213.849,308.949,215.865,304.954,219.859C300.96,223.854,298.944,228.968,298.944,235.202C298.944,235.202,298.944,619.193,298.944,619.193C298.944,625.427,300.96,630.542,304.954,634.536C308.949,638.531,314.063,640.547,320.298,640.547C320.298,640.547,362.967,640.547,362.967,640.547C369.202,640.547,374.316,638.531,378.311,634.536C382.305,630.542,384.321,625.427,384.321,619.193C384.321,619.193,384.321,619.193,384.321,619.193M554.963,619.193C554.963,619.193,554.963,235.202,554.963,235.202C554.963,228.968,552.947,223.854,548.952,219.859C544.958,215.865,539.843,213.849,533.609,213.849C533.609,213.849,490.939,213.849,490.939,213.849C484.705,213.849,479.591,215.865,475.596,219.859C471.602,223.854,469.586,228.968,469.586,235.202C469.586,235.202,469.586,619.193,469.586,619.193C469.586,625.427,471.602,630.542,475.596,634.536C479.591,638.531,484.705,640.547,490.939,640.547C490.939,640.547,533.609,640.547,533.609,640.547C539.843,640.547,544.958,638.531,548.952,634.536C552.947,630.542,554.963,625.427,554.963,619.193C554.963,619.193,554.963,619.193,554.963,619.193M725.642,619.193C725.642,619.193,725.642,235.202,725.642,235.202C725.642,228.968,723.626,223.854,719.631,219.859C715.637,215.865,710.523,213.849,704.288,213.849C704.288,213.849,661.618,213.849,661.618,213.849C655.384,213.849,650.27,215.865,646.275,219.859C642.281,223.854,640.265,228.968,640.265,235.202C640.265,235.202,640.265,619.193,640.265,619.193C640.265,625.427,642.281,630.542,646.275,634.536C650.27,638.531,655.384,640.547,661.618,640.547C661.618,640.547,704.288,640.547,704.288,640.547C710.523,640.547,715.637,638.531,719.631,634.536C723.626,630.542,725.642,625.427,725.642,619.193C725.642,619.193,725.642,619.193,725.642,619.193M810.944,136.573C810.944,136.573,810.944,768.556,810.944,768.556C810.944,768.556,213.642,768.556,213.642,768.556C213.642,768.556,213.642,136.573,213.642,136.573C213.642,126.792,215.21,117.795,218.308,109.582C221.407,101.369,224.655,95.359,227.977,91.589C231.3,87.818,233.651,85.914,234.995,85.914C234.995,85.914,789.628,85.914,789.628,85.914C790.972,85.914,793.324,87.818,796.646,91.589C799.969,95.359,803.216,101.369,806.315,109.582C809.413,117.795,810.981,126.792,810.981,136.573C810.981,136.573,810.944,136.573,810.944,136.573M362.967,853.858C362.967,853.858,661.618,853.858,661.618,853.858C661.618,853.858,629.625,931.843,629.625,931.843C626.527,935.838,622.719,938.302,618.277,939.16C618.277,939.16,406.944,939.16,406.944,939.16C402.501,938.264,398.693,935.838,395.595,931.843C395.595,931.843,362.967,853.858,362.967,853.858M981.623,832.505C981.623,832.505,981.623,789.835,981.623,789.835C981.623,783.601,979.607,778.486,975.613,774.492C971.618,770.497,966.504,768.481,960.27,768.481C960.27,768.481,896.284,768.481,896.284,768.481C896.284,768.481,896.284,136.498,896.284,136.498C896.284,99.615,885.831,67.734,864.963,40.818C844.094,13.902,818.97,0.463,789.628,0.5C789.628,0.5,234.995,0.5,234.995,0.5C205.653,0.5,180.529,13.491,159.661,39.511C138.792,65.531,128.34,96.964,128.34,133.848C128.34,133.848,128.34,768.481,128.34,768.481C128.34,768.481,64.354,768.481,64.354,768.481C58.119,768.481,53.005,770.497,49.01,774.492C45.016,778.486,43,783.601,43,789.835C43,789.835,43,832.505,43,832.505C43,838.739,45.016,843.853,49.01,847.848C53.005,851.842,58.119,853.858,64.354,853.858C64.354,853.858,270.348,853.858,270.348,853.858C270.348,853.858,317.012,965.18,317.012,965.18C323.695,981.644,335.678,995.643,353,1007.178C370.322,1018.714,387.867,1024.5,405.674,1024.5C405.674,1024.5,618.986,1024.5,618.986,1024.5C636.756,1024.5,654.301,1018.714,671.661,1007.178C689.02,995.643,701.003,981.644,707.648,965.18C707.648,965.18,754.312,853.858,754.312,853.858C754.312,853.858,960.307,853.858,960.307,853.858C966.541,853.858,971.656,851.842,975.65,847.848C979.645,843.853,981.66,838.739,981.66,832.505C981.66,832.505,981.623,832.505,981.623,832.505" class="sf-delete"/><glyph unicode="&#x0069;" d="M279.765,581.959C279.765,581.959,279.765,442.306,279.765,442.306C279.765,422.92,272.964,406.426,259.402,392.864C245.84,379.301,229.345,372.5,209.959,372.5C209.959,372.5,70.306,372.5,70.306,372.5C50.92,372.5,34.426,379.301,20.864,392.864C7.301,406.426,0.5,422.92,0.5,442.306C0.5,442.306,0.5,581.959,0.5,581.959C0.5,601.345,7.301,617.84,20.864,631.402C34.426,644.964,50.92,651.765,70.306,651.765C70.306,651.765,209.959,651.765,209.959,651.765C229.345,651.765,245.84,644.964,259.402,631.402C272.964,617.84,279.765,601.345,279.765,581.959C279.765,581.959,279.765,581.959,279.765,581.959M652.133,581.959C652.133,581.959,652.133,442.306,652.133,442.306C652.133,422.92,645.331,406.426,631.769,392.864C618.207,379.301,601.713,372.5,582.327,372.5C582.327,372.5,442.673,372.5,442.673,372.5C423.287,372.5,406.793,379.301,393.231,392.864C379.669,406.426,372.867,422.92,372.867,442.306C372.867,442.306,372.867,581.959,372.867,581.959C372.867,601.345,379.669,617.84,393.231,631.402C406.793,644.964,423.287,651.765,442.673,651.765C442.673,651.765,582.327,651.765,582.327,651.765C601.713,651.765,618.207,644.964,631.769,631.402C645.331,617.84,652.133,601.345,652.133,581.959C652.133,581.959,652.133,581.959,652.133,581.959M1024.5,581.959C1024.5,581.959,1024.5,442.306,1024.5,442.306C1024.5,422.92,1017.699,406.426,1004.136,392.864C990.574,379.301,974.08,372.5,954.694,372.5C954.694,372.5,815.041,372.5,815.041,372.5C795.655,372.5,779.16,379.301,765.598,392.864C752.036,406.426,745.235,422.92,745.235,442.306C745.235,442.306,745.235,581.959,745.235,581.959C745.235,601.345,752.036,617.84,765.598,631.402C779.16,644.964,795.655,651.765,815.041,651.765C815.041,651.765,954.694,651.765,954.694,651.765C974.08,651.765,990.574,644.964,1004.136,631.402C1017.699,617.84,1024.5,601.345,1024.5,581.959C1024.5,581.959,1024.5,581.959,1024.5,581.959" class="sf-more"/><glyph unicode="&#x006a;" d="M411.717,201.171C411.717,196.596,409.797,192.02,405.989,187.444C405.989,187.444,223.729,5.184,223.729,5.184C219.921,1.76,215.537,0.032,210.577,0.032C206.002,0.032,201.618,1.76,197.426,5.184C197.426,5.184,14.59,188.02,14.59,188.02C8.862,194.132,7.55,200.787,10.59,208.019C13.63,215.635,19.357,219.442,27.741,219.442C27.741,219.442,137.462,219.442,137.462,219.442C137.462,219.442,137.462,1005.665,137.462,1005.665C137.462,1011.009,139.19,1015.393,142.614,1018.816C146.037,1022.24,150.421,1023.968,155.765,1023.968C155.765,1023.968,265.486,1023.968,265.486,1023.968C270.83,1023.968,275.213,1022.24,278.637,1018.816C282.061,1015.393,283.789,1011.009,283.789,1005.665C283.789,1005.665,283.789,219.442,283.789,219.442C283.789,219.442,393.51,219.442,393.51,219.442C398.854,219.442,403.237,217.714,406.661,214.291C410.085,210.867,411.813,206.483,411.813,201.139C411.813,201.139,411.717,201.171,411.717,201.171M1015.103,128.024C1015.103,128.024,1015.103,18.303,1015.103,18.303C1015.103,12.959,1013.375,8.575,1009.951,5.152C1006.528,1.728,1002.144,0,996.8,0C996.8,0,521.406,0,521.406,0C516.062,0,511.679,1.728,508.255,5.152C504.831,8.575,503.103,12.959,503.103,18.303C503.103,18.303,503.103,128.024,503.103,128.024C503.103,133.368,504.831,137.751,508.255,141.175C511.679,144.599,516.062,146.327,521.406,146.327C521.406,146.327,996.8,146.327,996.8,146.327C1002.144,146.327,1006.528,144.599,1009.951,141.175C1013.375,137.751,1015.103,133.368,1015.103,128.024C1015.103,128.024,1015.103,128.024,1015.103,128.024M905.382,420.582C905.382,420.582,905.382,310.861,905.382,310.861C905.382,305.517,903.654,301.133,900.23,297.709C896.806,294.286,892.423,292.558,887.079,292.558C887.079,292.558,521.374,292.558,521.374,292.558C516.03,292.558,511.647,294.286,508.223,297.709C504.799,301.133,503.071,305.517,503.071,310.861C503.071,310.861,503.071,420.582,503.071,420.582C503.071,425.925,504.799,430.309,508.223,433.733C511.647,437.157,516.03,438.885,521.374,438.885C521.374,438.885,887.079,438.885,887.079,438.885C892.423,438.885,896.806,437.157,900.23,433.733C903.654,430.309,905.382,425.925,905.382,420.582C905.382,420.582,905.382,420.582,905.382,420.582M795.693,713.139C795.693,713.139,795.693,603.418,795.693,603.418C795.693,598.075,793.965,593.691,790.541,590.267C787.117,586.843,782.734,585.115,777.39,585.115C777.39,585.115,521.406,585.115,521.406,585.115C516.062,585.115,511.679,586.843,508.255,590.267C504.831,593.691,503.103,598.075,503.103,603.418C503.103,603.418,503.103,713.139,503.103,713.139C503.103,718.483,504.831,722.867,508.255,726.291C511.679,729.714,516.062,731.442,521.406,731.442C521.406,731.442,777.39,731.442,777.39,731.442C782.734,731.442,787.117,729.714,790.541,726.291C793.965,722.867,795.693,718.483,795.693,713.139C795.693,713.139,795.693,713.139,795.693,713.139M685.972,1005.697C685.972,1005.697,685.972,895.976,685.972,895.976C685.972,890.632,684.244,886.249,680.82,882.825C677.396,879.401,673.012,877.673,667.669,877.673C667.669,877.673,521.406,877.673,521.406,877.673C516.062,877.673,511.679,879.401,508.255,882.825C504.831,886.249,503.103,890.632,503.103,895.976C503.103,895.976,503.103,1005.697,503.103,1005.697C503.103,1011.041,504.831,1015.425,508.255,1018.848C511.679,1022.272,516.062,1024,521.406,1024C521.406,1024,667.669,1024,667.669,1024C673.012,1024,677.396,1022.272,680.82,1018.848C684.244,1015.425,685.972,1011.041,685.972,1005.697C685.972,1005.697,685.972,1005.697,685.972,1005.697" class="sf-sort-ascending"/><glyph unicode="&#x006b;" d="M685.972,128.024C685.972,128.024,685.972,18.303,685.972,18.303C685.972,12.959,684.244,8.575,680.82,5.152C677.396,1.728,673.012,0,667.669,0C667.669,0,521.406,0,521.406,0C516.062,0,511.679,1.728,508.255,5.152C504.831,8.575,503.103,12.959,503.103,18.303C503.103,18.303,503.103,128.024,503.103,128.024C503.103,133.368,504.831,137.751,508.255,141.175C511.679,144.599,516.062,146.327,521.406,146.327C521.406,146.327,667.669,146.327,667.669,146.327C673.012,146.327,677.396,144.599,680.82,141.175C684.244,137.751,685.972,133.368,685.972,128.024C685.972,128.024,685.972,128.024,685.972,128.024M411.717,201.171C411.717,196.596,409.797,192.02,405.989,187.444C405.989,187.444,223.729,5.184,223.729,5.184C219.921,1.76,215.537,0.032,210.577,0.032C206.002,0.032,201.618,1.76,197.426,5.184C197.426,5.184,14.59,188.02,14.59,188.02C8.862,194.132,7.55,200.787,10.59,208.019C13.63,215.635,19.357,219.442,27.741,219.442C27.741,219.442,137.462,219.442,137.462,219.442C137.462,219.442,137.462,1005.665,137.462,1005.665C137.462,1011.009,139.19,1015.393,142.614,1018.816C146.037,1022.24,150.421,1023.968,155.765,1023.968C155.765,1023.968,265.486,1023.968,265.486,1023.968C270.83,1023.968,275.213,1022.24,278.637,1018.816C282.061,1015.393,283.789,1011.009,283.789,1005.665C283.789,1005.665,283.789,219.442,283.789,219.442C283.789,219.442,393.51,219.442,393.51,219.442C398.854,219.442,403.237,217.714,406.661,214.291C410.085,210.867,411.813,206.483,411.813,201.139C411.813,201.139,411.717,201.171,411.717,201.171M795.693,420.582C795.693,420.582,795.693,310.861,795.693,310.861C795.693,305.517,793.965,301.133,790.541,297.709C787.117,294.286,782.734,292.558,777.39,292.558C777.39,292.558,521.406,292.558,521.406,292.558C516.062,292.558,511.679,294.286,508.255,297.709C504.831,301.133,503.103,305.517,503.103,310.861C503.103,310.861,503.103,420.582,503.103,420.582C503.103,425.925,504.831,430.309,508.255,433.733C511.679,437.157,516.062,438.885,521.406,438.885C521.406,438.885,777.39,438.885,777.39,438.885C782.734,438.885,787.117,437.157,790.541,433.733C793.965,430.309,795.693,425.925,795.693,420.582C795.693,420.582,795.693,420.582,795.693,420.582M905.382,713.139C905.382,713.139,905.382,603.418,905.382,603.418C905.382,598.075,903.654,593.691,900.23,590.267C896.806,586.843,892.423,585.115,887.079,585.115C887.079,585.115,521.374,585.115,521.374,585.115C516.03,585.115,511.647,586.843,508.223,590.267C504.799,593.691,503.071,598.075,503.071,603.418C503.071,603.418,503.071,713.139,503.071,713.139C503.071,718.483,504.799,722.867,508.223,726.291C511.647,729.714,516.03,731.442,521.374,731.442C521.374,731.442,887.079,731.442,887.079,731.442C892.423,731.442,896.806,729.714,900.23,726.291C903.654,722.867,905.382,718.483,905.382,713.139C905.382,713.139,905.382,713.139,905.382,713.139M1015.103,1005.697C1015.103,1005.697,1015.103,895.976,1015.103,895.976C1015.103,890.632,1013.375,886.249,1009.951,882.825C1006.528,879.401,1002.144,877.673,996.8,877.673C996.8,877.673,521.406,877.673,521.406,877.673C516.062,877.673,511.679,879.401,508.255,882.825C504.831,886.249,503.103,890.632,503.103,895.976C503.103,895.976,503.103,1005.697,503.103,1005.697C503.103,1011.041,504.831,1015.425,508.255,1018.848C511.679,1022.272,516.062,1024,521.406,1024C521.406,1024,996.8,1024,996.8,1024C1002.144,1024,1006.528,1022.272,1009.951,1018.848C1013.375,1015.425,1015.103,1011.041,1015.103,1005.697C1015.103,1005.697,1015.103,1005.697,1015.103,1005.697" class="sf-sort-descending"/><glyph unicode="&#x006c;" d="M878.359,450.51C878.359,450.51,878.359,145.655,878.359,145.655C878.359,134.664,874.34,125.132,866.302,117.058C858.263,108.984,848.731,104.965,837.705,105C837.705,105,593.814,105,593.814,105C593.814,105,593.814,348.892,593.814,348.892C593.814,348.892,431.231,348.892,431.231,348.892C431.231,348.892,431.231,105,431.231,105C431.231,105,187.34,105,187.34,105C176.349,105,166.817,109.019,158.743,117.058C150.669,125.096,146.65,134.629,146.685,145.655C146.685,145.655,146.685,450.51,146.685,450.51C146.685,450.937,146.792,451.577,147.006,452.431C147.219,453.284,147.326,453.924,147.326,454.351C147.326,454.351,512.54,755.401,512.54,755.401C512.54,755.401,877.755,454.351,877.755,454.351C878.181,453.498,878.395,452.217,878.395,450.546C878.395,450.546,878.359,450.51,878.359,450.51M1019.992,494.33C1019.992,494.33,980.618,447.344,980.618,447.344C977.239,443.539,972.793,441.191,967.28,440.373C967.28,440.373,965.359,440.373,965.359,440.373C959.846,440.373,955.4,441.867,952.021,444.819C952.021,444.819,512.505,811.314,512.505,811.314C512.505,811.314,72.988,444.819,72.988,444.819C67.902,441.44,62.816,439.946,57.729,440.373C52.216,441.227,47.77,443.539,44.391,447.344C44.391,447.344,5.017,494.33,5.017,494.33C1.638,498.563,0.144,503.542,0.571,509.269C0.998,514.995,3.31,519.548,7.543,522.927C7.543,522.927,464.203,903.365,464.203,903.365C477.754,914.355,493.831,919.868,512.469,919.868C531.107,919.868,547.184,914.355,560.735,903.365C560.735,903.365,715.706,773.79,715.706,773.79C715.706,773.79,715.706,897.638,715.706,897.638C715.706,903.578,717.627,908.451,721.432,912.257C725.238,916.062,730.111,917.983,736.051,917.983C736.051,917.983,858.014,917.983,858.014,917.983C863.954,917.983,868.827,916.062,872.633,912.257C876.439,908.451,878.359,903.578,878.359,897.638C878.359,897.638,878.359,638.488,878.359,638.488C878.359,638.488,1017.467,522.891,1017.467,522.891C1021.699,519.512,1024.047,514.96,1024.438,509.233C1024.829,503.507,1023.371,498.527,1019.992,494.294C1019.992,494.294,1019.992,494.33,1019.992,494.33" class="sf-home"/><glyph unicode="&#x006d;" d="M853.315,469.347C853.315,469.347,853.315,554.69,853.315,554.69C853.315,566.226,849.096,576.231,840.659,584.706C832.222,593.18,822.216,597.399,810.643,597.361C810.643,597.361,213.319,597.361,213.319,597.361C201.784,597.361,191.778,593.143,183.304,584.706C174.829,576.268,170.611,566.263,170.648,554.69C170.648,554.69,170.648,469.347,170.648,469.347C170.648,457.812,174.867,447.806,183.304,439.332C191.741,430.857,201.746,426.639,213.319,426.676C213.319,426.676,810.643,426.676,810.643,426.676C822.179,426.676,832.184,430.895,840.659,439.332C849.133,447.769,853.352,457.774,853.315,469.347C853.315,469.347,853.315,469.347,853.315,469.347M1024,831.998C1024,831.998,1024,192.002,1024,192.002C1024,139.102,1005.222,93.892,967.665,56.335C930.108,18.778,884.898,0,831.998,0C831.998,0,192.002,0,192.002,0C139.102,0,93.892,18.778,56.335,56.335C18.778,93.892,0,139.102,0,192.002C0,192.002,0,831.998,0,831.998C0,884.898,18.778,930.108,56.335,967.665C93.892,1005.222,139.102,1024,192.002,1024C192.002,1024,831.998,1024,831.998,1024C884.898,1024,930.108,1005.222,967.665,967.665C1005.222,930.108,1024,884.898,1024,831.998C1024,831.998,1024,831.998,1024,831.998" class="sf-close-filled"/><glyph unicode="&#x006e;" d="M853.315,469.347C853.315,469.347,853.315,554.69,853.315,554.69C853.315,566.226,849.096,576.231,840.659,584.706C832.222,593.18,822.216,597.399,810.643,597.361C810.643,597.361,597.324,597.361,597.324,597.361C597.324,597.361,597.324,810.681,597.324,810.681C597.324,822.216,593.105,832.222,584.668,840.696C576.231,849.171,566.226,853.389,554.653,853.352C554.653,853.352,469.31,853.352,469.31,853.352C457.774,853.352,447.769,849.133,439.294,840.696C430.82,832.259,426.601,822.254,426.639,810.681C426.639,810.681,426.639,597.361,426.639,597.361C426.639,597.361,213.319,597.361,213.319,597.361C201.784,597.361,191.778,593.143,183.304,584.706C174.829,576.268,170.611,566.263,170.648,554.69C170.648,554.69,170.648,469.347,170.648,469.347C170.648,457.812,174.867,447.806,183.304,439.332C191.741,430.857,201.746,426.639,213.319,426.676C213.319,426.676,426.639,426.676,426.639,426.676C426.639,426.676,426.639,213.357,426.639,213.357C426.639,201.821,430.857,191.816,439.294,183.341C447.732,174.867,457.737,170.648,469.31,170.685C469.31,170.685,554.653,170.685,554.653,170.685C566.188,170.685,576.194,174.904,584.668,183.341C593.143,191.778,597.361,201.784,597.324,213.357C597.324,213.357,597.324,426.676,597.324,426.676C597.324,426.676,810.643,426.676,810.643,426.676C822.179,426.676,832.184,430.895,840.659,439.332C849.133,447.769,853.352,457.774,853.315,469.347C853.315,469.347,853.315,469.347,853.315,469.347M1024,831.998C1024,831.998,1024,192.002,1024,192.002C1024,139.102,1005.222,93.892,967.665,56.335C930.108,18.778,884.898,0,831.998,0C831.998,0,192.002,0,192.002,0C139.102,0,93.892,18.778,56.335,56.335C18.778,93.892,0,139.102,0,192.002C0,192.002,0,831.998,0,831.998C0,884.898,18.778,930.108,56.335,967.665C93.892,1005.222,139.102,1024,192.002,1024C192.002,1024,831.998,1024,831.998,1024C884.898,1024,930.108,1005.222,967.665,967.665C1005.222,930.108,1024,884.898,1024,831.998C1024,831.998,1024,831.998,1024,831.998" class="sf-open-filled"/><glyph unicode="&#x006f;" d="M810.636,469.327C810.636,469.327,810.636,554.673,810.636,554.673C810.636,566.209,806.417,576.215,797.979,584.69C789.542,593.164,779.536,597.383,767.963,597.346C767.963,597.346,255.963,597.346,255.963,597.346C244.426,597.346,234.421,593.127,225.946,584.69C217.471,576.252,213.252,566.246,213.29,554.673C213.29,554.673,213.29,469.327,213.29,469.327C213.29,457.791,217.509,447.785,225.946,439.31C234.384,430.836,244.389,426.617,255.963,426.654C255.963,426.654,767.963,426.654,767.963,426.654C779.499,426.654,789.504,430.873,797.979,439.31C806.454,447.748,810.673,457.754,810.636,469.327C810.636,469.327,810.636,469.327,810.636,469.327M1024,512C1024,419.113,1001.114,333.431,955.343,254.992C909.571,176.553,847.447,114.429,769.008,68.657C690.569,22.886,604.887,0,512,0C419.113,0,333.431,22.886,254.992,68.657C176.553,114.429,114.429,176.553,68.657,254.992C22.886,333.431,0,419.113,0,512C0,604.887,22.886,690.569,68.657,769.008C114.429,847.447,176.553,909.571,254.992,955.343C333.431,1001.114,419.113,1024,512,1024C604.887,1024,690.569,1001.114,769.008,955.343C847.447,909.571,909.571,847.447,955.343,769.008C1001.114,690.569,1024,604.887,1024,512C1024,512,1024,512,1024,512" class="sf-circle-minus"/><glyph unicode="&#x0070;" d="M810.636,469.827C810.636,469.827,810.636,555.173,810.636,555.173C810.636,566.709,806.417,576.715,797.979,585.19C789.542,593.664,779.536,597.883,767.963,597.846C767.963,597.846,597.308,597.846,597.308,597.846C597.308,597.846,597.308,768.5,597.308,768.5C597.308,780.036,593.09,790.042,584.652,798.517C576.215,806.991,566.209,811.21,554.636,811.173C554.636,811.173,469.29,811.173,469.29,811.173C457.754,811.173,447.748,806.954,439.273,798.517C430.798,790.079,426.58,780.074,426.617,768.5C426.617,768.5,426.617,597.846,426.617,597.846C426.617,597.846,255.963,597.846,255.963,597.846C244.426,597.846,234.421,593.627,225.946,585.19C217.471,576.752,213.252,566.746,213.29,555.173C213.29,555.173,213.29,469.827,213.29,469.827C213.29,458.291,217.509,448.285,225.946,439.81C234.384,431.336,244.389,427.117,255.963,427.154C255.963,427.154,426.617,427.154,426.617,427.154C426.617,427.154,426.617,256.5,426.617,256.5C426.617,244.964,430.836,234.958,439.273,226.483C447.711,218.009,457.716,213.79,469.29,213.827C469.29,213.827,554.636,213.827,554.636,213.827C566.172,213.827,576.177,218.046,584.652,226.483C593.127,234.921,597.346,244.926,597.308,256.5C597.308,256.5,597.308,427.154,597.308,427.154C597.308,427.154,767.963,427.154,767.963,427.154C779.499,427.154,789.504,431.373,797.979,439.81C806.454,448.248,810.673,458.254,810.636,469.827C810.636,469.827,810.636,469.827,810.636,469.827M1024,512.5C1024,419.613,1001.114,333.931,955.343,255.492C909.571,177.053,847.447,114.929,769.008,69.157C690.569,23.386,604.887,0.5,512,0.5C419.113,0.5,333.431,23.386,254.992,69.157C176.553,114.929,114.429,177.053,68.657,255.492C22.886,333.931,0,419.613,0,512.5C0,605.387,22.886,691.069,68.657,769.508C114.429,847.947,176.553,910.071,254.992,955.843C333.431,1001.614,419.113,1024.5,512,1024.5C604.887,1024.5,690.569,1001.614,769.008,955.843C847.447,910.071,909.571,847.947,955.343,769.508C1001.114,691.069,1024,605.387,1024,512.5C1024,512.5,1024,512.5,1024,512.5" class="sf-circle-plus"/><glyph unicode="&#x0071;" d="M766.484,361.32C766.484,372.856,762.265,382.861,753.828,391.336C753.828,391.336,633.164,512,633.164,512C633.164,512,753.828,632.664,753.828,632.664C762.265,641.101,766.484,651.107,766.484,662.68C766.484,674.665,762.265,684.894,753.828,693.332C753.828,693.332,693.832,753.328,693.832,753.328C685.394,761.765,675.165,765.984,663.18,765.984C651.644,765.984,641.639,761.765,633.164,753.328C633.164,753.328,512.5,632.664,512.5,632.664C512.5,632.664,391.836,753.328,391.836,753.328C383.399,761.765,373.393,765.984,361.82,765.984C349.835,765.984,339.606,761.765,331.168,753.328C331.168,753.328,271.172,693.332,271.172,693.332C262.735,684.894,258.516,674.665,258.516,662.68C258.516,651.144,262.735,641.139,271.172,632.664C271.172,632.664,391.836,512,391.836,512C391.836,512,271.172,391.336,271.172,391.336C262.735,382.899,258.516,372.893,258.516,361.32C258.516,349.335,262.735,339.106,271.172,330.668C271.172,330.668,331.168,270.672,331.168,270.672C339.606,262.235,349.835,258.016,361.82,258.016C373.356,258.016,383.361,262.235,391.836,270.672C391.836,270.672,512.5,391.336,512.5,391.336C512.5,391.336,633.164,270.672,633.164,270.672C641.601,262.235,651.607,258.016,663.18,258.016C675.165,258.016,685.394,262.235,693.832,270.672C693.832,270.672,753.828,330.668,753.828,330.668C762.265,339.106,766.484,349.335,766.484,361.32C766.484,361.32,766.484,361.32,766.484,361.32M1024.5,512C1024.5,419.113,1001.614,333.431,955.843,254.992C910.071,176.553,847.947,114.429,769.508,68.657C691.069,22.886,605.387,0,512.5,0C419.613,0,333.931,22.886,255.492,68.657C177.053,114.429,114.929,176.553,69.157,254.992C23.386,333.431,0.5,419.113,0.5,512C0.5,604.887,23.386,690.569,69.157,769.008C114.929,847.447,177.053,909.571,255.492,955.343C333.931,1001.114,419.613,1024,512.5,1024C605.387,1024,691.069,1001.114,769.508,955.343C847.947,909.571,910.071,847.447,955.843,769.008C1001.614,690.569,1024.5,604.887,1024.5,512C1024.5,512,1024.5,512,1024.5,512" class="sf-circle-times"/><glyph unicode="&#x0072;" d="M597.308,192.009C597.308,192.009,597.308,320.028,597.308,320.028C597.308,326.263,595.292,331.378,591.298,335.372C587.303,339.367,582.188,341.383,575.953,341.383C575.953,341.383,447.935,341.383,447.935,341.383C441.7,341.383,436.585,339.367,432.59,335.372C428.596,331.378,426.58,326.263,426.58,320.028C426.58,320.028,426.58,192.009,426.58,192.009C426.58,185.775,428.596,180.66,432.59,176.665C436.585,172.67,441.7,170.654,447.935,170.654C447.935,170.654,575.953,170.654,575.953,170.654C582.188,170.654,587.303,172.67,591.298,176.665C595.292,180.66,597.308,185.775,597.308,192.009C597.308,192.009,597.308,192.009,597.308,192.009M767.963,640.019C767.963,679.107,755.642,715.359,730.965,748.698C706.287,782.038,675.523,807.835,638.637,826.017C601.751,844.199,563.969,853.308,525.291,853.346C417.283,853.346,334.85,806.006,277.952,711.327C271.27,700.649,273.062,691.316,283.291,683.326C283.291,683.326,371.288,616.648,371.288,616.648C374.386,613.997,378.605,612.653,383.944,612.653C391.075,612.653,396.6,615.303,400.595,620.642C424.153,650.846,443.268,671.305,457.94,681.982C473.061,692.66,492.176,697.999,515.285,697.999C536.603,697.999,555.606,692.212,572.295,680.676C588.983,669.139,597.308,655.998,597.308,641.325C597.308,624.413,592.866,610.861,583.98,600.669C575.095,590.476,559.974,580.471,538.657,570.652C510.656,558.22,484.97,538.993,461.636,512.971C438.302,486.949,426.617,459.06,426.617,429.305C426.617,429.305,426.617,405.299,426.617,405.299C426.617,399.064,428.633,393.95,432.628,389.955C436.622,385.96,441.737,383.944,447.972,383.944C447.972,383.944,575.991,383.944,575.991,383.944C582.225,383.944,587.34,385.96,591.335,389.955C595.33,393.95,597.346,399.064,597.346,405.299C597.346,413.737,602.125,424.75,611.682,438.302C621.24,451.855,633.336,462.868,648.008,471.306C662.232,479.295,673.097,485.642,680.676,490.309C688.254,494.976,698.447,502.778,711.327,513.643C724.207,524.507,734.101,535.184,741.007,545.638C747.914,556.092,754.149,569.532,759.674,585.959C765.2,602.386,767.963,620.381,768,639.944C768,639.944,767.963,640.019,767.963,640.019M1024,512C1024,419.113,1001.114,333.431,955.343,254.992C909.571,176.553,847.447,114.429,769.008,68.657C690.569,22.886,604.887,0,512,0C419.113,0,333.431,22.886,254.992,68.657C176.553,114.429,114.429,176.553,68.657,254.992C22.886,333.431,0,419.113,0,512C0,604.887,22.886,690.569,68.657,769.008C114.429,847.447,176.553,909.571,254.992,955.343C333.431,1001.114,419.113,1024,512,1024C604.887,1024,690.569,1001.114,769.008,955.343C847.447,909.571,909.571,847.447,955.343,769.008C1001.114,690.569,1024,604.887,1024,512C1024,512,1024,512,1024,512" class="sf-circle-question"/><glyph unicode="&#x0073;" d="M856.496,620.008C856.496,632.44,852.502,642.669,844.512,650.659C844.512,650.659,783.844,710.655,783.844,710.655C775.407,719.092,765.401,723.311,753.828,723.311C742.254,723.311,732.249,719.092,723.811,710.655C723.811,710.655,451.795,439.31,451.795,439.31C451.795,439.31,301.114,589.991,301.114,589.991C292.677,598.428,282.671,602.647,271.098,602.647C259.524,602.647,249.519,598.428,241.081,589.991C241.081,589.991,180.413,529.995,180.413,529.995C172.424,522.006,168.429,511.776,168.429,499.344C168.429,487.359,172.424,477.354,180.413,469.327C180.413,469.327,421.741,227.999,421.741,227.999C430.178,219.562,440.184,215.343,451.757,215.343C463.742,215.343,473.971,219.562,482.409,227.999C482.409,227.999,844.4,589.991,844.4,589.991C852.39,597.98,856.384,607.986,856.384,620.008C856.384,620.008,856.496,620.008,856.496,620.008M1024.5,512C1024.5,419.113,1001.614,333.431,955.843,254.992C910.071,176.553,847.947,114.429,769.508,68.657C691.069,22.886,605.387,0,512.5,0C419.613,0,333.931,22.886,255.492,68.657C177.053,114.429,114.929,176.553,69.157,254.992C23.386,333.431,0.5,419.113,0.5,512C0.5,604.887,23.386,690.569,69.157,769.008C114.929,847.447,177.053,909.571,255.492,955.343C333.931,1001.114,419.613,1024,512.5,1024C605.387,1024,691.069,1001.114,769.508,955.343C847.947,909.571,910.071,847.447,955.843,769.008C1001.614,690.569,1024.5,604.887,1024.5,512C1024.5,512,1024.5,512,1024.5,512" class="sf-circle-filled-check"/></font>
</defs>
</svg>
