<?xml version="1.0" encoding="UTF-8"?>
<!DOCTYPE svg PUBLIC "-//W3C//DTD SVG 1.1//EN" "http://www.w3.org/Graphics/SVG/1.1/DTD/svg11.dtd">
<svg version="1.1" xmlns="http://www.w3.org/2000/svg" xmlns:xlink="http://www.w3.org/1999/xlink" x="0" y="0" width="20" height="20" viewBox="0, 0, 20, 20">
  <symbol id="cube">
    <path d="M10.803,6.869 C10.361,7.038 9.639,7.038 9.199,6.869 L1.244,3.806 C0.804,3.636 0.804,3.359 1.244,3.189 L9.199,0.127 C9.639,-0.042 10.361,-0.042 10.803,0.127 L18.757,3.189 C19.198,3.359 19.198,3.636 18.757,3.806 L10.803,6.869 z" fill="#393939" stroke="#fff" stroke-width="0.5"/>
    <path d="M9.558,19.415 C9.558,19.877 9.198,20.114 8.757,19.946 L0.802,16.884 C0.361,16.714 0,16.2 0,15.738 L0,5.002 C0,4.542 0.361,4.303 0.802,4.473 L8.757,7.535 C9.198,7.704 9.558,8.22 9.558,8.682 L9.558,19.415 z" fill="#393939" stroke="#fff" stroke-width="0.5"/>
    <path d="M10.442,19.412 C10.442,19.874 10.803,20.111 11.244,19.942 L19.198,16.881 C19.639,16.711 20,16.194 20,15.734 L20,4.999 C20,4.538 19.639,4.299 19.198,4.469 L11.244,7.531 C10.803,7.701 10.442,8.217 10.442,8.677 L10.442,19.412 z" fill="#393939" stroke="#fff" stroke-width="0.5"/>
  </symbol>
  <symbol id="donut">
    <path d="M20,10 C20,15.523 15.53,20 10.015,20 C4.501,20 0.03,15.523 0.03,10 C0.03,4.477 4.501,0 10.015,0 C15.53,0 20,4.477 20,10 z" fill="#CCCCCC" stroke="#FFFFFF" stroke-width="1" stroke-linejoin="bevel"/>
    <path d="M9.985,10.038 L9.985,0.038 C4.47,0.038 0,4.515 0,10.038 C0,10.62 0.051,11.201 0.152,11.775 L9.985,10.038 z" fill="#B5B5B5" stroke="#FFFFFF" stroke-width="1" stroke-linejoin="bevel"/>
    <path d="M9.985,10.038 L17.521,3.477 C15.584,1.247 12.762,-0.012 9.811,0.04 L9.985,10.038 z" fill="#767676" stroke="#FFFFFF" stroke-width="1" stroke-linejoin="bevel"/>
    <path d="M10.159,6.836 L10.159,6.836 C8.373,6.836 6.925,8.286 6.925,10.075 L6.925,10.075 C6.925,11.863 8.373,13.313 10.159,13.313 L10.159,13.313 C11.944,13.313 13.392,11.863 13.392,10.075 L13.392,10.075 C13.392,8.286 11.944,6.836 10.159,6.836 C10.159,6.836 10.159,6.836 10.159,6.836 z" fill="#FFFFFF"/>
  </symbol>
  <symbol id="pie">
    <path d="M20,10 C20,15.523 15.53,20 10.015,20 C4.501,20 0.03,15.523 0.03,10 C0.03,4.477 4.501,0 10.015,0 C15.53,0 20,4.477 20,10 z" fill="#DDDDDD" stroke="#FFFFFF" stroke-width="1" stroke-linejoin="bevel"/>
    <path d="M9.985,10.038 L9.985,0.038 C4.47,0.038 0,4.515 0,10.038 C0,10.62 0.051,11.201 0.152,11.775 L9.985,10.038 z" fill="#B5B5B5" stroke="#FFFFFF" stroke-width="1" stroke-linejoin="bevel"/>
    <path d="M9.985,10.038 L17.521,3.477 C15.584,1.247 12.762,-0.012 9.811,0.04 L9.985,10.038 z" fill="#767676" stroke="#FFFFFF" stroke-width="1" stroke-linecap="round" stroke-linejoin="round"/>
  </symbol>
  <symbol id="gauge">
    <path d="M10,0.001 C15.648,0.095 19.693,4.507 19.97,10 C19.923,12.672 18.879,15.115 16.98,16.98 L10,10 L10,10 L10,0.001 z" fill="#B5B5B5" stroke="#FFFFFF" stroke-width="1" stroke-linejoin="bevel"/>
    <path d="M9.985,-0 L10,0.001 L10,10 L2.959,17.041 C0.957,15.209 0.133,12.641 0,10 C0,4.477 4.47,-0 9.985,-0 z" fill="#DDDDDD" stroke="#FFFFFF" stroke-width="1" stroke-linejoin="bevel"/>
    <path d="M10,15 C7.239,15 5,12.761 5,10 C5,7.239 7.239,5 10,5 C12.761,5 15,7.239 15,10 C15,12.761 12.761,15 10,15 z" fill="#FFFFFF"/>
    <path d="M11,11 L10,11 L4,3 L11,10 L11,11 z" fill="#767676" stroke="#FFFFFF" stroke-width="0.25"/>
  </symbol>
  <symbol id="vertical">
    <path d="M0,5 L6,5 L6,20 L0,20 z" fill="#DDDDDD" stroke="#FFFFFF" stroke-width="1" stroke-linejoin="bevel"/>
    <path d="M7,0 L13,0 L13,20 L7,20 z" fill="#B5B5B5" stroke="#FFFFFF" stroke-width="1" stroke-linejoin="bevel"/>
    <path d="M14,10 L20,10 L20,20 L14,20 z" fill="#767676" stroke="#FFFFFF" stroke-width="1" stroke-linejoin="bevel"/>
  </symbol>
  <symbol id="tree">
    <path d="M14,11 L20,11 L20,15 L14,15 z" fill="#DDDDDD" stroke="#FFFFFF" stroke-width="1" stroke-linejoin="bevel"/>
    <path d="M0,16 L6,16 L6,20 L0,20 z" fill="#B5B5B5" stroke="#FFFFFF" stroke-width="1" stroke-linejoin="bevel"/>
    <path d="M7,0 L13,0 L13,4 L7,4 z" fill="#767676" stroke="#FFFFFF" stroke-width="1" stroke-linejoin="bevel"/>
    <path d="M3,15 L3,13 L10,13 L10,5 L10,9 L17,9 L17,10" fill-opacity="0" stroke="#FFFFFF" stroke-width="1.5" stroke-linecap="round" stroke-linejoin="round"/>
    <path d="M3,15 L3,13 L10,13 L10,5 L10,9 L17,9 L17,10" fill-opacity="0" stroke="#767676" stroke-width="1" stroke-linecap="round" stroke-linejoin="round"/>
  </symbol>
  <symbol id="funnel">
    <path d="M0,0 L20,0 L16,8 L4,8 L0,0 z" fill="#DDDDDD" stroke="#FFFFFF" stroke-width="1" stroke-linecap="round" stroke-linejoin="bevel"/>
    <path d="M4,8 L16,8 L13,14 L6.925,14 L4,8 z" fill="#B5B5B5" stroke="#FFFFFF" stroke-width="1" stroke-linecap="round" stroke-linejoin="bevel"/>
    <path d="M6.925,14 L10,20 L13,14 L6.925,14 z" fill="#767676" stroke="#FFFFFF" stroke-width="1" stroke-linecap="round" stroke-linejoin="bevel"/>
  </symbol>
  <symbol id="line">
    <path d="M1,10 L4,15 L8,2 L12,18 L16,5 L19,10" fill-opacity="0" stroke="#FFFFFF" stroke-width="1.5" stroke-linecap="round" stroke-linejoin="round"/>
    <path d="M1,10 L4,15 L8,2 L12,18 L16,5 L19,10" fill-opacity="0" stroke="#767676" stroke-width="1" stroke-linecap="round" stroke-linejoin="round"/>
  </symbol>
  <symbol id="area">
    <path d="M20,20 L-0,20 L-0,3.529 L3.333,5.882 L7.778,0 L12.222,7.059 L16.667,3.529 L20,5.882 L20,20" fill="#DDDDDD" stroke="#FFFFFF" stroke-width="1" stroke-linecap="round" stroke-linejoin="round"/>
    <path d="M20,20 L-0,20 L-0,9.412 L3.333,15.294 L7.778,5.882 L12.222,12.941 L16.667,5.882 L20,9.412 L20,20" fill="#B5B5B5" stroke="#FFFFFF" stroke-width="1" stroke-linecap="round" stroke-linejoin="round"/>
    <path d="M20,20 L-0,20 L-0,14.118 L3.333,16.471 L7.778,15.294 L12.222,17.647 L17,14 L20,14 L20,20" fill="#767676" stroke="#FFFFFF" stroke-width="1" stroke-linecap="round" stroke-linejoin="round"/>
  </symbol>
  <symbol id="horizontal">
    <path d="M0,0 L14,0 L14,6 L0,6 z" fill="#DDDDDD" stroke="#FFFFFF" stroke-width="1" stroke-linejoin="bevel"/>
    <path d="M0,7 L20,7 L20,13 L0,13 z" fill="#B5B5B5" stroke="#FFFFFF" stroke-width="1" stroke-linejoin="bevel"/>
    <path d="M0,14 L10,14 L10,20 L0,20 z" fill="#767676" stroke="#FFFFFF" stroke-width="1" stroke-linejoin="bevel"/>
  </symbol>
  <symbol id="treemap">
    <path d="M0,9.662 L7,9.662 L7,19.994 L0,19.994 z" fill="#767676" stroke="#FFFFFF" stroke-width="1" stroke-linejoin="bevel"/>
    <path d="M0,0 L20,0 L20,9.662 L0,9.662 z" fill="#DDDDDD" stroke="#FFFFFF" stroke-width="1" stroke-linejoin="bevel"/>
    <path d="M7,9.662 L20,9.662 L20,20 L7,20 z" fill="#B5B5B5" stroke="#FFFFFF" stroke-width="1" stroke-linejoin="bevel"/>
  </symbol>
  <symbol id="bubble">
    <path d="M2,4 C0.895,4 0,3.105 0,2 C0,0.895 0.895,0 2,0 C3.105,0 4,0.895 4,2 C4,3.105 3.105,4 2,4 z" fill="#767676" stroke="#FFFFFF" stroke-width="1" stroke-linejoin="bevel"/>
    <path d="M5.5,20 C3.567,20 2,18.433 2,16.5 C2,14.567 3.567,13 5.5,13 C7.433,13 9,14.567 9,16.5 C9,18.433 7.433,20 5.5,20 z" fill="#DDDDDD" stroke="#FFFFFF" stroke-width="1" stroke-linejoin="bevel"/>
    <path d="M15,13 C12.239,13 10,10.761 10,8 C10,5.239 12.239,3 15,3 C17.761,3 20,5.239 20,8 C20,10.761 17.761,13 15,13 z" fill="#B5B5B5" stroke="#FFFFFF" stroke-width="1" stroke-linejoin="bevel"/>
  </symbol>
  <symbol id="pareto">
    <path d="M0,8 L6,8 L6,20 L0,20 z" fill="#DDDDDD" stroke="#FFFFFF" stroke-width="1" stroke-linejoin="bevel"/>
    <path d="M7,13 L13,13 L13,20 L7,20 z" fill="#B5B5B5" stroke="#FFFFFF" stroke-width="1" stroke-linejoin="bevel"/>
    <path d="M14,16 L20,16 L20,20 L14,20 z" fill="#767676" stroke="#FFFFFF" stroke-width="1" stroke-linejoin="bevel"/>
    <path d="M3,7 L10,2 L17,1" fill-opacity="0" stroke="#FFFFFF" stroke-width="1.5" stroke-linecap="round" stroke-linejoin="round"/>
    <path d="M3,7 L10,2 L17,1" fill-opacity="0" stroke="#767676" stroke-width="1" stroke-linecap="round" stroke-linejoin="round"/>
  </symbol>
  <symbol id="stacked">
    <path d="M7,0 L13,0 L13,7 L7,7 z" fill="#DDDDDD" stroke="#FFFFFF" stroke-width="1" stroke-linejoin="bevel"/>
    <path d="M7,7 L13,7 L13,13 L7,13 z" fill="#B5B5B5" stroke="#FFFFFF" stroke-width="1" stroke-linejoin="bevel"/>
    <path d="M7,13 L13,13 L13,20 L7,20 z" fill="#767676" stroke="#FFFFFF" stroke-width="1" stroke-linejoin="bevel"/>
    <path d="M0,12 L6,12 L6,14 L0,14 z" fill="#DDDDDD" stroke="#FFFFFF" stroke-width="1" stroke-linejoin="bevel"/>
    <path d="M0,14 L6,14 L6,17 L0,17 z" fill="#B5B5B5" stroke="#FFFFFF" stroke-width="1" stroke-linejoin="bevel"/>
    <path d="M0,17 L6,17 L6,20 L0,20 z" fill="#767676" stroke="#FFFFFF" stroke-width="1" stroke-linejoin="bevel"/>
    <path d="M14,3 L20,3 L20,9 L14,9 z" fill="#DDDDDD" stroke="#FFFFFF" stroke-width="1" stroke-linejoin="bevel"/>
    <path d="M14,9 L20,9 L20,14 L14,14 z" fill="#B5B5B5" stroke="#FFFFFF" stroke-width="1" stroke-linejoin="bevel"/>
    <path d="M14,14 L20,14 L20,20 L14,20 z" fill="#767676" stroke="#FFFFFF" stroke-width="1" stroke-linejoin="bevel"/>
  </symbol>
  <symbol id="globe" viewBox="0 0 1792 1792">
    <path d="M896 128q209 0 385.5 103t279.5 279.5 103 385.5-103 385.5-279.5 279.5-385.5 103-385.5-103-279.5-279.5-103-385.5 103-385.5 279.5-279.5 385.5-103zm274 521q-2 1-9.5 9.5t-13.5 9.5q2 0 4.5-5t5-11 3.5-7q6-7 22-15 14-6 52-12 34-8 51 11-2-2 9.5-13t14.5-12q3-2 15-4.5t15-7.5l2-22q-12 1-17.5-7t-6.5-21q0 2-6 8 0-7-4.5-8t-11.5 1-9 1q-10-3-15-7.5t-8-16.5-4-15q-2-5-9.5-10.5t-9.5-10.5q-1-2-2.5-5.5t-3-6.5-4-5.5-5.5-2.5-7 5-7.5 10-4.5 5q-3-2-6-1.5t-4.5 1-4.5 3-5 3.5q-3 2-8.5 3t-8.5 2q15-5-1-11-10-4-16-3 9-4 7.5-12t-8.5-14h5q-1-4-8.5-8.5t-17.5-8.5-13-6q-8-5-34-9.5t-33-.5q-5 6-4.5 10.5t4 14 3.5 12.5q1 6-5.5 13t-6.5 12q0 7 14 15.5t10 21.5q-3 8-16 16t-16 12q-5 8-1.5 18.5t10.5 16.5q2 2 1.5 4t-3.5 4.5-5.5 4-6.5 3.5l-3 2q-11 5-20.5-6t-13.5-26q-7-25-16-30-23-8-29 1-5-13-41-26-25-9-58-4 6-1 0-15-7-15-19-12 3-6 4-17.5t1-13.5q3-13 12-23 1-1 7-8.5t9.5-13.5.5-6q35 4 50-11 5-5 11.5-17t10.5-17q9-6 14-5.5t14.5 5.5 14.5 5q14 1 15.5-11t-7.5-20q12 1 3-17-5-7-8-9-12-4-27 5-8 4 2 8-1-1-9.5 10.5t-16.5 17.5-16-5q-1-1-5.5-13.5t-9.5-13.5q-8 0-16 15 3-8-11-15t-24-8q19-12-8-27-7-4-20.5-5t-19.5 4q-5 7-5.5 11.5t5 8 10.5 5.5 11.5 4 8.5 3q14 10 8 14-2 1-8.5 3.5t-11.5 4.5-6 4q-3 4 0 14t-2 14q-5-5-9-17.5t-7-16.5q7 9-25 6l-10-1q-4 0-16 2t-20.5 1-13.5-8q-4-8 0-20 1-4 4-2-4-3-11-9.5t-10-8.5q-46 15-94 41 6 1 12-1 5-2 13-6.5t10-5.5q34-14 42-7l5-5q14 16 20 25-7-4-30-1-20 6-22 12 7 12 5 18-4-3-11.5-10t-14.5-11-15-5q-16 0-22 1-146 80-235 222 7 7 12 8 4 1 5 9t2.5 11 11.5-3q9 8 3 19 1-1 44 27 19 17 21 21 3 11-10 18-1-2-9-9t-9-4q-3 5 .5 18.5t10.5 12.5q-7 0-9.5 16t-2.5 35.5-1 23.5l2 1q-3 12 5.5 34.5t21.5 19.5q-13 3 20 43 6 8 8 9 3 2 12 7.5t15 10 10 10.5q4 5 10 22.5t14 23.5q-2 6 9.5 20t10.5 23q-1 0-2.5 1t-2.5 1q3 7 15.5 14t15.5 13q1 3 2 10t3 11 8 2q2-20-24-62-15-25-17-29-3-5-5.5-15.5t-4.5-14.5q2 0 6 1.5t8.5 3.5 7.5 4 2 3q-3 7 2 17.5t12 18.5 17 19 12 13q6 6 14 19.5t0 13.5q9 0 20 10t17 20q5 8 8 26t5 24q2 7 8.5 13.5t12.5 9.5l16 8 13 7q5 2 18.5 10.5t21.5 11.5q10 4 16 4t14.5-2.5 13.5-3.5q15-2 29 15t21 21q36 19 55 11-2 1 .5 7.5t8 15.5 9 14.5 5.5 8.5q5 6 18 15t18 15q6-4 7-9-3 8 7 20t18 10q14-3 14-32-31 15-49-18 0-1-2.5-5.5t-4-8.5-2.5-8.5 0-7.5 5-3q9 0 10-3.5t-2-12.5-4-13q-1-8-11-20t-12-15q-5 9-16 8t-16-9q0 1-1.5 5.5t-1.5 6.5q-13 0-15-1 1-3 2.5-17.5t3.5-22.5q1-4 5.5-12t7.5-14.5 4-12.5-4.5-9.5-17.5-2.5q-19 1-26 20-1 3-3 10.5t-5 11.5-9 7q-7 3-24 2t-24-5q-13-8-22.5-29t-9.5-37q0-10 2.5-26.5t3-25-5.5-24.5q3-2 9-9.5t10-10.5q2-1 4.5-1.5t4.5 0 4-1.5 3-6q-1-1-4-3-3-3-4-3 7 3 28.5-1.5t27.5 1.5q15 11 22-2 0-1-2.5-9.5t-.5-13.5q5 27 29 9 3 3 15.5 5t17.5 5q3 2 7 5.5t5.5 4.5 5-.5 8.5-6.5q10 14 12 24 11 40 19 44 7 3 11 2t4.5-9.5 0-14-1.5-12.5l-1-8v-18l-1-8q-15-3-18.5-12t1.5-18.5 15-18.5q1-1 8-3.5t15.5-6.5 12.5-8q21-19 15-35 7 0 11-9-1 0-5-3t-7.5-5-4.5-2q9-5 2-16 5-3 7.5-11t7.5-10q9 12 21 2 7-8 1-16 5-7 20.5-10.5t18.5-9.5q7 2 8-2t1-12 3-12q4-5 15-9t13-5l17-11q3-4 0-4 18 2 31-11 10-11-6-20 3-6-3-9.5t-15-5.5q3-1 11.5-.5t10.5-1.5q15-10-7-16-17-5-43 12zm-163 877q206-36 351-189-3-3-12.5-4.5t-12.5-3.5q-18-7-24-8 1-7-2.5-13t-8-9-12.5-8-11-7q-2-2-7-6t-7-5.5-7.5-4.5-8.5-2-10 1l-3 1q-3 1-5.5 2.5t-5.5 3-4 3 0 2.5q-21-17-36-22-5-1-11-5.5t-10.5-7-10-1.5-11.5 7q-5 5-6 15t-2 13q-7-5 0-17.5t2-18.5q-3-6-10.5-4.5t-12 4.5-11.5 8.5-9 6.5-8.5 5.5-8.5 7.5q-3 4-6 12t-5 11q-2-4-11.5-6.5t-9.5-5.5q2 10 4 35t5 38q7 31-12 48-27 25-29 40-4 22 12 26 0 7-8 20.5t-7 21.5q0 6 2 16z" fill="#B5B5B5"/>
  </symbol>
</svg>
