<svg width="576" height="732.9999999999999" xmlns="http://www.w3.org/2000/svg">
 <metadata>2013-01-29 22:09Z
  <!-- Produced by OmniGraffle Professional 5.4.1 --></metadata>

 <g fill="none">
  <title>Canvas 1</title>
  <g id="svg_2">
   <title>Layer 1</title>
   <path id="svg_3" fill="#767676" d="m123.146912,445.850952l12.235168,0l-2.689133,5.97525l-6.856888,0l-2.689148,-5.97525z"/>
   <path id="svg_4" fill="#444" d="m125.909721,451.826202l6.718285,0l-1.694366,3.968384l-3.329536,0l-1.694382,-3.968384z"/>
   <path id="svg_5" fill="#222" d="m127.681396,455.893829l1.570908,3.663574l1.570908,-3.663574l-3.141815,0z"/>
   <circle id="svg_6" fill="#ccc" r="10.248722" cy="423.41926" cx="128.88382"/>
   <circle id="svg_7" stroke-width="2" stroke-linejoin="round" stroke-linecap="round" stroke="white" r="10.248722" cy="423.41926" cx="128.88382"/>
   <path id="svg_8" fill="#b5b5b5" d="m128.852844,423.458221l0,-10.248688c-5.660217,0 -10.248711,4.588501 -10.248711,10.248688c0,0.596649 0.052094,1.192108 0.155693,1.779694l10.093018,-1.779694z"/>
   <path id="svg_9" stroke-width="2" stroke-linejoin="round" stroke-linecap="round" stroke="white" d="m128.852844,423.458221l0,-10.248688c-5.660217,0 -10.248711,4.588501 -10.248711,10.248688c0,0.596649 0.052094,1.192108 0.155693,1.779694l10.093018,-1.779694z"/>
   <path id="svg_10" fill="#767676" d="m128.852844,423.458221l7.734802,-6.723755c-1.987503,-2.286346 -4.884689,-3.576263 -7.913666,-3.523376l0.178864,10.247131z"/>
   <path id="svg_11" stroke-width="2" stroke-linejoin="round" stroke-linecap="round" stroke="white" d="m128.852844,423.458221l7.734802,-6.723755c-1.987503,-2.286346 -4.884689,-3.576263 -7.913666,-3.523376l0.178864,10.247131z"/>
   <path id="svg_12" fill="white" d="m129.031036,420.176361l0,0c-1.833176,0 -3.31926,1.486084 -3.31926,3.319244l0,0c0,1.833191 1.486084,3.319275 3.31926,3.319275l0,0c1.833176,0 3.31926,-1.486084 3.31926,-3.319275l0,0c0,-1.83316 -1.486084,-3.319244 -3.31926,-3.319244c0,0 0,0 0,0z"/>
   <path id="svg_13" stroke-width="6" stroke-linejoin="round" stroke-linecap="round" stroke="white" d="m129.031036,420.176361l0,0c-1.833176,0 -3.31926,1.486084 -3.31926,3.319244l0,0c0,1.833191 1.486084,3.319275 3.31926,3.319275l0,0c1.833176,0 3.31926,-1.486084 3.31926,-3.319275l0,0c0,-1.83316 -1.486084,-3.319244 -3.31926,-3.319244c0,0 0,0 0,0z"/>
   <circle id="svg_14" fill="#ccc" r="10.248722" cy="394.75471" cx="129.29984"/>
   <circle id="svg_15" stroke-width="2" stroke-linejoin="round" stroke-linecap="round" stroke="white" r="10.248722" cy="394.75471" cx="129.29984"/>
   <path id="svg_16" fill="#b5b5b5" d="m129.26886,394.793671l0,-10.248688c-5.66021,0 -10.248711,4.588501 -10.248711,10.248688c0,0.596619 0.052094,1.192139 0.155701,1.779694l10.09301,-1.779694z"/>
   <path id="svg_17" stroke-width="2" stroke-linejoin="round" stroke-linecap="round" stroke="white" d="m129.26886,394.793671l0,-10.248688c-5.66021,0 -10.248711,4.588501 -10.248711,10.248688c0,0.596619 0.052094,1.192139 0.155701,1.779694l10.09301,-1.779694z"/>
   <path id="svg_18" fill="#767676" d="m129.26886,394.793671l7.734802,-6.723755c-1.987503,-2.286346 -4.884689,-3.576263 -7.913666,-3.523376l0.178864,10.247131z"/>
   <path id="svg_19" stroke-width="2" stroke-linejoin="round" stroke-linecap="round" stroke="white" d="m129.26886,394.793671l7.734802,-6.723755c-1.987503,-2.286346 -4.884689,-3.576263 -7.913666,-3.523376l0.178864,10.247131z"/>
   <rect id="svg_20" fill="#f4f4f4" height="1.261851" width="6.718287" y="248.08496" x="127.40631"/>
   <rect id="svg_21" stroke-linejoin="round" stroke-linecap="round" stroke="white" height="1.261851" width="6.718287" y="248.08496" x="127.40631"/>
   <rect id="svg_22" fill="#ddd" height="5.236993" width="6.718287" y="249.64856" x="127.40631"/>
   <rect id="svg_23" stroke-linejoin="round" stroke-linecap="round" stroke="white" height="5.236993" width="6.718287" y="249.64856" x="127.40631"/>
   <rect id="svg_24" fill="#ccc" height="4.11478" width="6.718287" y="255.05502" x="127.40631"/>
   <rect id="svg_25" stroke-linejoin="round" stroke-linecap="round" stroke="white" height="4.11478" width="6.718287" y="255.05502" x="127.40631"/>
   <rect id="svg_26" fill="#b5b5b5" height="5.800447" width="6.718287" y="259.28451" x="127.40631"/>
   <rect id="svg_27" stroke-linejoin="round" stroke-linecap="round" stroke="white" height="5.800447" width="6.718287" y="259.28451" x="127.40631"/>
   <rect id="svg_28" fill="#f4f4f4" height="0.510892" width="6.718287" y="258.20209" x="120.40631"/>
   <rect id="svg_29" stroke-linejoin="round" stroke-linecap="round" stroke="white" height="0.510892" width="6.718287" y="258.20209" x="120.40631"/>
   <rect id="svg_30" fill="#ddd" height="2.120328" width="6.718287" y="258.83515" x="120.40631"/>
   <rect id="svg_31" stroke-linejoin="round" stroke-linecap="round" stroke="white" height="2.120328" width="6.718287" y="258.83515" x="120.40631"/>
   <rect id="svg_32" fill="#ccc" height="1.665972" width="6.718287" y="261.02409" x="120.40631"/>
   <rect id="svg_33" stroke-linejoin="round" stroke-linecap="round" stroke="white" height="1.665972" width="6.718287" y="261.02409" x="120.40631"/>
   <rect id="svg_34" fill="#b5b5b5" height="2.348456" width="6.718287" y="262.7365" x="120.40631"/>
   <rect id="svg_35" stroke-linejoin="round" stroke-linecap="round" stroke="white" height="2.348456" width="6.718287" y="262.7365" x="120.40631"/>
   <rect id="svg_36" fill="#f4f4f4" height="1.113398" width="6.718287" y="250.08496" x="133.40631"/>
   <rect id="svg_37" stroke-linejoin="round" stroke-linecap="round" stroke="white" height="1.113398" width="6.718287" y="250.08496" x="133.40631"/>
   <rect id="svg_38" fill="#ddd" height="4.620876" width="6.718287" y="251.46461" x="133.40631"/>
   <rect id="svg_39" stroke-linejoin="round" stroke-linecap="round" stroke="white" height="4.620876" width="6.718287" y="251.46461" x="133.40631"/>
   <rect id="svg_40" fill="#ccc" height="3.630688" width="6.718287" y="256.23501" x="133.40631"/>
   <rect id="svg_41" stroke-linejoin="round" stroke-linecap="round" stroke="white" height="3.630688" width="6.718287" y="256.23501" x="133.40631"/>
   <rect id="svg_42" fill="#b5b5b5" height="5.118042" width="6.718287" y="259.96692" x="133.40631"/>
   <rect id="svg_43" stroke-linejoin="round" stroke-linecap="round" stroke="white" height="5.118042" width="6.718287" y="259.96692" x="133.40631"/>
   <rect id="svg_44" fill="#ddd" height="10.496701" width="4.860446" y="307.92809" x="121.852844"/>
   <rect id="svg_45" stroke-linejoin="round" stroke-linecap="round" stroke="white" height="10.496701" width="4.860446" y="307.92809" x="121.852844"/>
   <rect id="svg_46" fill="#b5b5b5" height="14.995287" width="4.860446" y="303.4295" x="127.92263"/>
   <rect id="svg_47" stroke-linejoin="round" stroke-linecap="round" stroke="white" height="14.995287" width="4.860446" y="303.4295" x="127.92263"/>
   <rect id="svg_48" fill="#767676" height="7.753555" width="4.860446" y="310.67595" x="133.9924"/>
   <rect id="svg_49" stroke-linejoin="round" stroke-linecap="round" stroke="white" height="7.753555" width="4.860446" y="310.67595" x="133.9924"/>
   <rect id="svg_50" fill="#ddd" height="4.860446" width="10.496701" y="274.63002" x="121.52767"/>
   <rect id="svg_51" stroke-linejoin="round" stroke-linecap="round" stroke="white" height="4.860446" width="10.496701" y="274.63002" x="121.52767"/>
   <rect id="svg_52" fill="#b5b5b5" height="4.860446" width="14.995287" y="280.6998" x="121.52766"/>
   <rect id="svg_53" stroke-linejoin="round" stroke-linecap="round" stroke="white" height="4.860446" width="14.995287" y="280.6998" x="121.52766"/>
   <rect id="svg_54" fill="#767676" height="4.860446" width="7.753555" y="286.76958" x="121.52295"/>
   <rect id="svg_55" stroke-linejoin="round" stroke-linecap="round" stroke="white" height="4.860446" width="7.753555" y="286.76958" x="121.52295"/>
   <rect id="svg_56" fill="#ddd" height="10.496701" width="4.860446" y="333.99857" x="123.14691"/>
   <rect id="svg_57" stroke-linejoin="round" stroke-linecap="round" stroke="white" height="10.496701" width="4.860446" y="333.99857" x="123.14691"/>
   <rect id="svg_58" fill="#b5b5b5" height="14.995287" width="4.860446" y="329.5" x="129.216694"/>
   <rect id="svg_59" stroke-linejoin="round" stroke-linecap="round" stroke="white" height="14.995287" width="4.860446" y="329.5" x="129.216694"/>
   <rect id="svg_60" fill="#767676" height="7.753555" width="4.860446" y="336.74644" x="135.286466"/>
   <rect id="svg_61" stroke-linejoin="round" stroke-linecap="round" stroke="white" height="7.753555" width="4.860446" y="336.74644" x="135.286466"/>
   <path id="svg_62" stroke-linejoin="round" stroke-linecap="round" stroke="#767676" d="m119.006409,341.771606l12.235184,-9l4.764816,6l9,-5.663971l0,0"/>
   <path id="svg_63" stroke-linejoin="round" stroke-linecap="round" stroke="#767676" d="m121.018219,369.016479l10.235184,-9l4.764816,6l7,-5.663971"/>
  </g>
 </g>
</svg>
