<svg xmlns="http://www.w3.org/2000/svg" xmlns:xl="http://www.w3.org/1999/xlink" version="1.1" viewBox="0 0 40 40" width="40pt" height="40pt"><g stroke="none" stroke-opacity="1" stroke-dasharray="none" fill="none" fill-opacity="1"><g><path d="M 36 20.007558 C 36 28.835144 28.857008 36 20.022652 36 C 11.203398 36 4.0453044 28.835144 4.0453044 20.007558 C 4.0453044 11.164856 11.203398 4 20.022652 4 C 28.857008 4 36 11.164856 36 20.007558 Z" fill="#dfdfdf"/><path d="M 36 20.007558 C 36 28.835144 28.857008 36 20.022652 36 C 11.203398 36 4.0453044 28.835144 4.0453044 20.007558 C 4.0453044 11.164856 11.203398 4 20.022652 4 C 28.857008 4 36 11.164856 36 20.007558 Z" stroke="white" stroke-linecap="round" stroke-linejoin="round" stroke-width="1"/><path d="M 19.977348 20.068021 L 19.977348 4.060463 C 11.142992 4.060463 4 11.225319 4 20.068021 C 4 20.99008 4.0755073 21.927256 4.2416234 22.8342 Z" fill="#a6a6a6"/><path d="M 19.977348 20.068021 L 19.977348 4.060463 C 11.142992 4.060463 4 11.225319 4 20.068021 C 4 20.99008 4.0755073 21.927256 4.2416234 22.8342 Z" fill="#b3b3b3"/><path d="M 19.977348 20.068021 L 19.977348 4.060463 C 11.142992 4.060463 4 11.225319 4 20.068021 C 4 20.99008 4.0755073 21.927256 4.2416234 22.8342 Z" stroke="white" stroke-linecap="round" stroke-linejoin="round" stroke-width="1"/><path d="M 19.977348 20.068021 L 32.043417 9.5625886 C 28.932515 5.9952763 24.417178 3.9848843 19.69042 4.0755786 Z" fill="#838383"/><path d="M 19.977348 20.068021 L 32.043417 9.5625886 C 28.932515 5.9952763 24.417178 3.9848843 19.69042 4.0755786 Z" stroke="white" stroke-linecap="round" stroke-linejoin="round" stroke-width="1"/><path d="M 20.249174 14.943788 C 17.394998 14.943788 15.084474 17.256495 15.084474 20.128484 C 15.084474 22.985357 17.394998 25.298063 20.249174 25.298063 C 23.118452 25.298063 25.428976 22.985357 25.428976 20.128484 C 25.428976 17.256495 23.118452 14.943788 20.249174 14.943788 Z" fill="white"/><path d="M 20.249174 14.943788 C 17.394998 14.943788 15.084474 17.256495 15.084474 20.128484 C 15.084474 22.985357 17.394998 25.298063 20.249174 25.298063 C 23.118452 25.298063 25.428976 22.985357 25.428976 20.128484 C 25.428976 17.256495 23.118452 14.943788 20.249174 14.943788 Z" stroke="white" stroke-linecap="round" stroke-linejoin="round" stroke-width="1"/></g></g></svg>
