<svg xmlns="http://www.w3.org/2000/svg" xmlns:xl="http://www.w3.org/1999/xlink" version="1.1" viewBox="0 0 40 40" width="40pt" height="40pt"><g stroke="none" stroke-opacity="1" stroke-dasharray="none" fill="none" fill-opacity="1"><g><path d="M 15.5 4 L 24.5 4 L 24.5 8 L 15.5 8 L 15.5 4 Z" fill="#dfdfdf"/><path d="M 15.5 10 L 24.5 10 L 24.5 24 L 15.5 24 L 15.5 10 Z" fill="#b3b3b3"/><path d="M 15.5 26 L 24.5 26 L 24.5 36 L 15.5 36 L 15.5 26 Z" fill="#838383"/><path d="M 27 12 L 36 12 L 36 16 L 27 16 L 27 12 Z" fill="#dfdfdf"/><path d="M 27 18 L 36 18 L 36 26 L 27 26 L 27 18 Z" fill="#b3b3b3"/><path d="M 27 28 L 36 28 L 36 36 L 27 36 L 27 28 Z" fill="#838383"/><path d="M 4 18 L 13 18 L 13 20 L 4 20 L 4 18 Z" fill="#dfdfdf"/><path d="M 4 22 L 13 22 L 13 30 L 4 30 L 4 22 Z" fill="#b3b3b3"/><path d="M 4 32 L 13 32 L 13 36 L 4 36 L 4 32 Z" fill="#838383"/></g></g></svg>
