<?xml version="1.0" encoding="UTF-8"?>
<!DOCTYPE svg PUBLIC "-//W3C//DTD SVG 1.1//EN" "http://www.w3.org/Graphics/SVG/1.1/DTD/svg11.dtd">
<svg version="1.1" xmlns="http://www.w3.org/2000/svg" xmlns:xlink="http://www.w3.org/1999/xlink" x="0" y="0" width="20" height="20" viewBox="0, 0, 20, 20">
  <symbol id="cube">
    <path d="M10.803,6.869 C10.361,7.038 9.639,7.038 9.199,6.869 L1.244,3.806 C0.804,3.636 0.804,3.359 1.244,3.189 L9.199,0.127 C9.639,-0.042 10.361,-0.042 10.803,0.127 L18.757,3.189 C19.198,3.359 19.198,3.636 18.757,3.806 L10.803,6.869 z" fill="#E41E26"/>
    <path d="M9.558,19.415 C9.558,19.877 9.198,20.114 8.757,19.946 L0.802,16.884 C0.361,16.714 0,16.2 0,15.738 L0,5.002 C0,4.542 0.361,4.303 0.802,4.473 L8.757,7.535 C9.198,7.704 9.558,8.22 9.558,8.682 L9.558,19.415 z" fill="#E8E9EA"/>
    <path d="M10.442,19.412 C10.442,19.874 10.803,20.111 11.244,19.942 L19.198,16.881 C19.639,16.711 20,16.194 20,15.734 L20,4.999 C20,4.538 19.639,4.299 19.198,4.469 L11.244,7.531 C10.803,7.701 10.442,8.217 10.442,8.677 L10.442,19.412 z" fill="#595A5C"/>
  </symbol>
  <symbol id="donut">
    <g>
      <path d="M20,10 C20,15.523 15.53,20 10.015,20 C4.501,20 0.03,15.523 0.03,10 C0.03,4.477 4.501,0 10.015,0 C15.53,0 20,4.477 20,10 z" fill="#CCCCCC" stroke="#FFFFFF" stroke-width="0.5" stroke-linejoin="bevel"/>
    </g>
    <g>
      <path d="M9.985,10.038 L9.985,0.038 C4.47,0.038 0,4.515 0,10.038 C0,10.62 0.051,11.201 0.152,11.775 L9.985,10.038 z" fill="#B5B5B5" stroke="#FFFFFF" stroke-width="0.5" stroke-linejoin="bevel"/>
    </g>
    <g>
      <path d="M9.985,10.038 L17.521,3.477 C15.584,1.247 12.762,-0.012 9.811,0.04 L9.985,10.038 z" fill="#767676" stroke="#FFFFFF" stroke-width="0.5" stroke-linejoin="bevel"/>
    </g>
    <path d="M10.159,6.836 L10.159,6.836 C8.373,6.836 6.925,8.286 6.925,10.075 L6.925,10.075 C6.925,11.863 8.373,13.313 10.159,13.313 L10.159,13.313 C11.944,13.313 13.392,11.863 13.392,10.075 L13.392,10.075 C13.392,8.286 11.944,6.836 10.159,6.836 C10.159,6.836 10.159,6.836 10.159,6.836 z" fill="#FFFFFF"/>
  </symbol>
  <symbol id="pie">
    <g>
      <path d="M20,10 C20,15.523 15.53,20 10.015,20 C4.501,20 0.03,15.523 0.03,10 C0.03,4.477 4.501,0 10.015,0 C15.53,0 20,4.477 20,10 z" fill="#CCCCCC" stroke="#FFFFFF" stroke-width="0.5" stroke-linejoin="bevel"/>
    </g>
    <g>
      <path d="M9.985,10.038 L9.985,0.038 C4.47,0.038 0,4.515 0,10.038 C0,10.62 0.051,11.201 0.152,11.775 L9.985,10.038 z" fill="#B5B5B5" stroke="#FFFFFF" stroke-width="0.5" stroke-linejoin="bevel"/>
    </g>
    <g>
      <path d="M9.985,10.038 L17.521,3.477 C15.584,1.247 12.762,-0.012 9.811,0.04 L9.985,10.038 z" fill="#767676" stroke="#FFFFFF" stroke-width="0.5" stroke-linecap="round" stroke-linejoin="round"/>
    </g>
  </symbol>
  <symbol id="vertical">
    <g>
      <path d="M0,5 L6,5 L6,20 L0,20 z" fill="#DDDDDD" stroke="#FFFFFF" stroke-width="0.5" stroke-linejoin="bevel"/>
    </g>
    <g>
      <path d="M7,0 L13,0 L13,20 L7,20 z" fill="#B5B5B5" stroke="#FFFFFF" stroke-width="0.5" stroke-linejoin="bevel"/>
    </g>
    <g>
      <path d="M14,10 L20,10 L20,20 L14,20 z" fill="#767676" stroke="#FFFFFF" stroke-width="0.5" stroke-linejoin="bevel"/>
    </g>
  </symbol>
  <symbol id="tree">
    <g>
      <path d="M14,11 L20,11 L20,15 L14,15 z" fill="#DDDDDD" stroke="#FFFFFF" stroke-width="0.5" stroke-linejoin="bevel"/>
    </g>
    <g>
      <path d="M0,16 L6,16 L6,20 L0,20 z" fill="#B5B5B5" stroke="#FFFFFF" stroke-width="0.5" stroke-linejoin="bevel"/>
    </g>
    <g>
      <path d="M7,0 L13,0 L13,4 L7,4 z" fill="#767676" stroke="#FFFFFF" stroke-width="0.5" stroke-linejoin="bevel"/>
    </g>
    <path d="M3,15 L3,13 L10,13 L10,5 L10,9 L17,9 L17,10" fill-opacity="0" stroke="#FFFFFF" stroke-width="1.5" stroke-linecap="round" stroke-linejoin="round"/>
    <path d="M3,15 L3,13 L10,13 L10,5 L10,9 L17,9 L17,10" fill-opacity="0" stroke="#767676" stroke-width="0.75" stroke-linecap="round" stroke-linejoin="round"/>
  </symbol>
  <symbol id="funnel">
    <g>
      <path d="M0,0 L20,0 L16,8 L4,8 L0,0 z" fill="#DDDDDD" stroke="#FFFFFF" stroke-width="0.5" stroke-linecap="round" stroke-linejoin="bevel"/>
    </g>
    <g>
      <path d="M4,8 L16,8 L13,14 L6.925,14 L4,8 z" fill="#B5B5B5" stroke="#FFFFFF" stroke-width="0.5" stroke-linecap="round" stroke-linejoin="bevel"/>
    </g>
    <g>
      <path d="M6.925,14 L10,20 L13,14 L6.925,14 z" fill="#767676" stroke="#FFFFFF" stroke-width="0.5" stroke-linecap="round" stroke-linejoin="bevel"/>
    </g>
  </symbol>
  <symbol id="line">
    <path d="M1,10 L4,15 L8,2 L12,18 L16,5 L19,10" fill-opacity="0" stroke="#FFFFFF" stroke-width="1.5" stroke-linecap="round" stroke-linejoin="round"/>
    <path d="M1,10 L4,15 L8,2 L12,18 L16,5 L19,10" fill-opacity="0" stroke="#767676" stroke-width="0.75" stroke-linecap="round" stroke-linejoin="round"/>
  </symbol>
  <symbol id="horizontal">
    <g>
      <path d="M0,0 L14,0 L14,6 L0,6 z" fill="#DDDDDD" stroke="#FFFFFF" stroke-width="0.5" stroke-linejoin="bevel"/>
    </g>
    <g>
      <path d="M0,7 L20,7 L20,13 L0,13 z" fill="#B5B5B5" stroke="#FFFFFF" stroke-width="0.5" stroke-linejoin="bevel"/>
    </g>
    <g>
      <path d="M0,14 L10,14 L10,20 L0,20 z" fill="#767676" stroke="#FFFFFF" stroke-width="0.5" stroke-linejoin="bevel"/>
    </g>
  </symbol>
  <symbol id="treemap">
    <g>
      <path d="M0,9.662 L7,9.662 L7,19.994 L0,19.994 z" fill="#767676" stroke="#FFFFFF" stroke-width="0.5" stroke-linejoin="bevel"/>
    </g>
    <g>
      <path d="M0,0 L20,0 L20,9.662 L0,9.662 z" fill="#DDDDDD" stroke="#FFFFFF" stroke-width="0.5" stroke-linejoin="bevel"/>
    </g>
    <g>
      <path d="M7,9.662 L20,9.662 L20,20 L7,20 z" fill="#B5B5B5" stroke="#FFFFFF" stroke-width="0.5" stroke-linejoin="bevel"/>
    </g>
  </symbol>
  <symbol id="bubble">
    <g>
      <path d="M2,4 C0.895,4 0,3.105 0,2 C0,0.895 0.895,0 2,0 C3.105,0 4,0.895 4,2 C4,3.105 3.105,4 2,4 z" fill="#767676" stroke="#FFFFFF" stroke-width="0.5" stroke-linejoin="bevel"/>
    </g>
    <g>
      <path d="M5.5,20 C3.567,20 2,18.433 2,16.5 C2,14.567 3.567,13 5.5,13 C7.433,13 9,14.567 9,16.5 C9,18.433 7.433,20 5.5,20 z" fill="#DDDDDD" stroke="#FFFFFF" stroke-width="0.5" stroke-linejoin="bevel"/>
    </g>
    <g>
      <path d="M15,13 C12.239,13 10,10.761 10,8 C10,5.239 12.239,3 15,3 C17.761,3 20,5.239 20,8 C20,10.761 17.761,13 15,13 z" fill="#B5B5B5" stroke="#FFFFFF" stroke-width="0.5" stroke-linejoin="bevel"/>
    </g>
  </symbol>
  <symbol id="pareto">
    <g>
      <path d="M0,8 L6,8 L6,20 L0,20 z" fill="#DDDDDD" stroke="#FFFFFF" stroke-width="0.5" stroke-linejoin="bevel"/>
    </g>
    <g>
      <path d="M7,13 L13,13 L13,20 L7,20 z" fill="#B5B5B5" stroke="#FFFFFF" stroke-width="0.5" stroke-linejoin="bevel"/>
    </g>
    <g>
      <path d="M14,16 L20,16 L20,20 L14,20 z" fill="#767676" stroke="#FFFFFF" stroke-width="0.5" stroke-linejoin="bevel"/>
    </g>
    <path d="M3,7 L10,2 L17,1" fill-opacity="0" stroke="#FFFFFF" stroke-width="1.5" stroke-linecap="round" stroke-linejoin="round"/>
    <path d="M3,7 L10,2 L17,1" fill-opacity="0" stroke="#767676" stroke-width="0.75" stroke-linecap="round" stroke-linejoin="round"/>
  </symbol>
  <symbol id="stacked">
    <g>
      <path d="M7,0 L13,0 L13,7 L7,7 z" fill="#DDDDDD" stroke="#FFFFFF" stroke-width="0.5" stroke-linejoin="bevel"/>
    </g>
    <g>
      <path d="M7,7 L13,7 L13,13 L7,13 z" fill="#B5B5B5" stroke="#FFFFFF" stroke-width="0.5" stroke-linejoin="bevel"/>
    </g>
    <g>
      <path d="M7,13 L13,13 L13,20 L7,20 z" fill="#767676" stroke="#FFFFFF" stroke-width="0.5" stroke-linejoin="bevel"/>
    </g>
    <g>
      <path d="M0,12 L6,12 L6,14 L0,14 z" fill="#DDDDDD" stroke="#FFFFFF" stroke-width="0.5" stroke-linejoin="bevel"/>
    </g>
    <g>
      <path d="M0,14 L6,14 L6,17 L0,17 z" fill="#B5B5B5" stroke="#FFFFFF" stroke-width="0.5" stroke-linejoin="bevel"/>
    </g>
    <g>
      <path d="M0,17 L6,17 L6,20 L0,20 z" fill="#767676" stroke="#FFFFFF" stroke-width="0.5" stroke-linejoin="bevel"/>
    </g>
    <g>
      <path d="M14,3 L20,3 L20,9 L14,9 z" fill="#DDDDDD" stroke="#FFFFFF" stroke-width="0.5" stroke-linejoin="bevel"/>
    </g>
    <g>
      <path d="M14,9 L20,9 L20,14 L14,14 z" fill="#B5B5B5" stroke="#FFFFFF" stroke-width="0.5" stroke-linejoin="bevel"/>
    </g>
    <g>
      <path d="M14,14 L20,14 L20,20 L14,20 z" fill="#767676" stroke="#FFFFFF" stroke-width="0.5" stroke-linejoin="bevel"/>
    </g>
  </symbol>
</svg>
